<svg width="49" height="60" viewBox="0 0 49 60" fill="none" xmlns="http://www.w3.org/2000/svg">
<path d="M24.6673 8.78273C25.5183 8.78273 26.2105 9.36246 26.2105 10.075C26.2105 10.7221 26.7353 11.2468 27.3824 11.2468C28.0295 11.2468 28.5543 10.7221 28.5543 10.075C28.5543 8.45203 27.4114 7.07426 25.8391 6.6082V6.44531C25.8391 5.7982 25.3144 5.27344 24.6673 5.27344C24.0202 5.27344 23.4954 5.7982 23.4954 6.44531V6.6082C21.9231 7.07437 20.7803 8.45203 20.7803 10.075C20.7803 12.0798 22.524 13.7108 24.6673 13.7108C25.5183 13.7108 26.2105 14.2904 26.2105 15.0029C26.2105 15.7154 25.5183 16.2952 24.6673 16.2952C23.8163 16.2952 23.124 15.7154 23.124 15.0029C23.124 14.3558 22.5993 13.8311 21.9521 13.8311C21.305 13.8311 20.7803 14.3558 20.7803 15.0029C20.7803 16.6259 21.9231 18.0036 23.4954 18.4697V18.6328C23.4954 19.2799 24.0202 19.8047 24.6673 19.8047C25.3144 19.8047 25.8391 19.2799 25.8391 18.6328V18.4699C27.4114 18.0037 28.5543 16.6261 28.5543 15.0032C28.5543 12.9982 26.8105 11.3672 24.6673 11.3672C23.8163 11.3672 23.124 10.7876 23.124 10.0751C23.124 9.36258 23.8163 8.78273 24.6673 8.78273Z" fill="white"/>
<path d="M47.167 32.1363H41.8112C34.8733 32.1363 29.229 37.7807 29.229 44.7185V49.5889L25.8389 52.9791V25.0229C32.2054 24.43 37.2061 19.058 37.2061 12.5391C37.2061 11.1892 36.9925 9.86063 36.5713 8.59008C36.3676 7.97555 35.7038 7.64309 35.0901 7.84641C34.4757 8.05008 34.1429 8.71313 34.3464 9.32754C34.6889 10.3597 34.8623 11.4403 34.8623 12.5391C34.8623 18.1608 30.2887 22.7344 24.667 22.7344C19.0453 22.7344 14.4717 18.1608 14.4717 12.5391C14.4717 6.91734 19.0453 2.34375 24.667 2.34375C25.7018 2.34375 26.7219 2.49785 27.6991 2.80195C28.3168 2.99414 28.9739 2.64902 29.1663 2.03109C29.3586 1.41316 29.0134 0.756211 28.3954 0.563906C27.1925 0.189727 25.9381 0 24.667 0C17.7529 0 12.1279 5.625 12.1279 12.5391C12.1279 19.058 17.1286 24.43 23.4951 25.0229V42.8742L20.105 39.4842V34.6139C20.105 27.6761 14.4607 22.0317 7.52281 22.0317H2.16699C1.51988 22.0317 0.995117 22.5565 0.995117 23.2036V28.5594C0.995117 35.4973 6.63945 41.1416 13.5773 41.1416H18.4477L23.4951 46.1889V57.6562H11.7575C11.1104 57.6562 10.5856 58.181 10.5856 58.8281C10.5856 59.4752 11.1104 60 11.7575 60H37.5765C38.2236 60 38.7484 59.4752 38.7484 58.8281C38.7484 58.181 38.2236 57.6562 37.5765 57.6562H25.8389V56.2937L30.8864 51.2463H35.7567C42.6945 51.2463 48.3389 45.602 48.3389 38.6641V33.3082C48.3389 32.6611 47.8141 32.1363 47.167 32.1363ZM13.5773 38.7977C7.9318 38.7977 3.33887 34.2048 3.33887 28.5593V24.3754H7.52281C13.1683 24.3754 17.7612 28.9683 17.7612 34.6138V37.1404L12.5861 31.9652C12.1284 31.5077 11.3866 31.5077 10.9288 31.9652C10.4711 32.4229 10.4711 33.1649 10.9288 33.6226L16.104 38.7977H13.5773ZM45.9951 38.6641C45.9951 44.3096 41.4022 48.9026 35.7567 48.9026H33.2301L38.4052 43.7276C38.8629 43.27 38.8629 42.5279 38.4052 42.0702C37.9476 41.6128 37.2058 41.6127 36.7479 42.0702L31.5727 47.2453V44.7186C31.5727 39.0731 36.1657 34.4802 41.8112 34.4802H45.9951V38.6641Z" fill="white"/>
<path d="M32.6807 5.64844C32.9889 5.64844 33.2912 5.52305 33.5092 5.30496C33.727 5.08711 33.8525 4.78477 33.8525 4.47656C33.8525 4.16824 33.7271 3.86602 33.5092 3.64805C33.2912 3.43008 32.9889 3.30469 32.6807 3.30469C32.3725 3.30469 32.0701 3.42996 31.8521 3.64805C31.6343 3.86602 31.5088 4.16824 31.5088 4.47656C31.5088 4.78477 31.6342 5.08711 31.8521 5.30496C32.0701 5.52305 32.3725 5.64844 32.6807 5.64844Z" fill="white"/>
</svg>
