<svg width="61" height="56" viewBox="0 0 61 56" fill="none" xmlns="http://www.w3.org/2000/svg">
<path d="M59.1611 53.3125H57.1592V26.2348C57.1592 25.5876 56.6346 25.0629 55.9873 25.0629H47.5498C46.9026 25.0629 46.378 25.5876 46.378 26.2348V53.3125H42.8689V36.8672C42.8689 36.22 42.3443 35.6953 41.697 35.6953H33.2595C32.6123 35.6953 32.0877 36.22 32.0877 36.8672V53.3125H28.5786V45.633C28.5786 44.9857 28.0539 44.4611 27.4067 44.4611C26.7595 44.4611 26.2348 44.9857 26.2348 45.633V53.3125H20.1411V27.4067H26.2348V35.0861C26.2348 35.7333 26.7595 36.258 27.4067 36.258C28.0539 36.258 28.5786 35.7333 28.5786 35.0861V26.2348C28.5786 25.5876 28.0539 25.0629 27.4067 25.0629H18.9692C18.322 25.0629 17.7973 25.5876 17.7973 26.2348V53.3125H14.2883V36.8672C14.2883 36.22 13.7636 35.6953 13.1164 35.6953H4.67891C4.03168 35.6953 3.50703 36.22 3.50703 36.8672V53.3125H1.50488C0.857656 53.3125 0.333008 53.8371 0.333008 54.4844C0.333008 55.1316 0.857656 55.6562 1.50488 55.6562H59.1611C59.8084 55.6562 60.333 55.1316 60.333 54.4844C60.333 53.8371 59.8084 53.3125 59.1611 53.3125ZM5.85055 53.3125V38.0391H11.9443V53.3125H5.85055ZM34.4313 53.3125V38.0391H40.525V53.3125H34.4313ZM48.7217 53.3125V27.4067H54.8155V53.3125H48.7217Z" fill="white"/>
<path d="M8.89734 25.4153C11.8697 25.4153 14.288 22.997 14.288 20.0247C14.288 18.9627 13.978 17.9724 13.4456 17.1368L20.2999 10.2827C21.1354 10.815 22.1258 11.125 23.1878 11.125C24.2497 11.125 25.2401 10.815 26.0755 10.2828L32.931 17.1382C32.3979 17.9741 32.0875 18.9652 32.0875 20.028C32.0875 23.0003 34.5057 25.4186 37.4781 25.4186C40.4504 25.4186 42.8687 23.0003 42.8687 20.028C42.8687 18.9652 42.5583 17.9741 42.0252 17.1382L48.8807 10.2828C49.7161 10.8152 50.7064 11.125 51.7684 11.125C54.7407 11.125 57.159 8.70672 57.159 5.73437C57.159 2.76203 54.7407 0.34375 51.7684 0.34375C48.7961 0.34375 46.3778 2.76203 46.3778 5.73437C46.3778 6.79809 46.6887 7.78984 47.2226 8.62621L40.3678 15.481C39.5319 14.9479 38.5409 14.6375 37.4781 14.6375C36.4153 14.6375 35.4243 14.9479 34.5884 15.481L27.7336 8.62621C28.2675 7.78996 28.5784 6.79809 28.5784 5.73449C28.5784 2.76215 26.1601 0.343867 23.1878 0.343867C20.2154 0.343867 17.7971 2.76215 17.7971 5.73449C17.7971 6.79809 18.108 7.78996 18.642 8.62621L11.7892 15.4789C10.9528 14.945 9.96106 14.6341 8.89746 14.6341C5.92512 14.6341 3.50684 17.0523 3.50684 20.0247C3.50684 22.997 5.925 25.4153 8.89734 25.4153ZM51.7685 2.6875C53.4485 2.6875 54.8154 4.05437 54.8154 5.73437C54.8154 7.41437 53.4485 8.78125 51.7685 8.78125C50.0885 8.78125 48.7216 7.41437 48.7216 5.73437C48.7216 4.05437 50.0884 2.6875 51.7685 2.6875ZM40.525 20.028C40.525 21.708 39.1581 23.0748 37.4781 23.0748C35.7981 23.0748 34.4312 21.708 34.4312 20.028C34.4312 18.348 35.7981 16.9811 37.4781 16.9811C39.1581 16.9811 40.525 18.348 40.525 20.028ZM23.1878 2.6875C24.8678 2.6875 26.2346 4.05437 26.2346 5.73437C26.2346 7.41437 24.8678 8.78125 23.1878 8.78125C21.5078 8.78125 20.1409 7.41437 20.1409 5.73437C20.1409 4.05437 21.5077 2.6875 23.1878 2.6875ZM8.89734 16.9778C10.5773 16.9778 11.9442 18.3447 11.9442 20.0247C11.9442 21.7047 10.5773 23.0716 8.89734 23.0716C7.21734 23.0716 5.85047 21.7047 5.85047 20.0247C5.85047 18.3447 7.21734 16.9778 8.89734 16.9778Z" fill="white"/>
<path d="M27.4072 39.1879C27.099 39.1879 26.7967 39.3133 26.5787 39.5312C26.3607 39.7492 26.2354 40.0504 26.2354 40.3597C26.2354 40.6679 26.3607 40.9703 26.5787 41.1883C26.7967 41.4062 27.099 41.5316 27.4072 41.5316C27.7154 41.5316 28.0178 41.4062 28.2357 41.1883C28.4537 40.9703 28.5791 40.6679 28.5791 40.3597C28.5791 40.0515 28.4537 39.7492 28.2357 39.5312C28.0178 39.3133 27.7154 39.1879 27.4072 39.1879Z" fill="white"/>
</svg>
