<svg width="60" height="60" viewBox="0 0 60 60" fill="none" xmlns="http://www.w3.org/2000/svg">
<path d="M56.4844 32.3423H55.3125V24.1392C55.3125 20.9053 53.0416 18.1936 50.0112 17.5101L44.6774 8.27179C43.8957 6.91792 42.6336 5.94936 41.1234 5.54472C40.0572 5.25913 38.9577 5.28011 37.9267 5.59136L34.0482 1.7128C31.766 -0.569189 28.053 -0.569424 25.7708 1.7128L10.1415 17.3423H6.79688C3.0491 17.3423 0 20.3914 0 24.1392V53.2017C0 56.9495 3.0491 59.9986 6.79688 59.9986H22.3828C23.0299 59.9986 23.5547 59.4738 23.5547 58.8267C23.5547 58.1796 23.0299 57.6548 22.3828 57.6548H6.79688C4.34145 57.6548 2.34375 55.6571 2.34375 53.2017V24.1392C2.34375 21.6838 4.34145 19.6861 6.79688 19.6861H48.5156C50.9711 19.6861 52.9688 21.6838 52.9688 24.1392V32.3423H44.2969C40.8076 32.3423 37.9688 35.1812 37.9688 38.6705C37.9688 42.1597 40.8076 44.9986 44.2969 44.9986H52.9688V53.2017C52.9688 55.6571 50.9711 57.6548 48.5156 57.6548H32.9297C32.2826 57.6548 31.7578 58.1796 31.7578 58.8267C31.7578 59.4738 32.2826 59.9986 32.9297 59.9986H48.5156C52.2634 59.9986 55.3125 56.9495 55.3125 53.2017V44.9986H56.4844C58.4229 44.9986 60 43.4215 60 41.483V35.858C60 33.9196 58.4229 32.3423 56.4844 32.3423ZM40.5169 7.80866C41.4223 8.05124 42.1791 8.6319 42.6477 9.44366L47.208 17.3423H21.9484L37.854 8.15917C38.6657 7.69065 39.6111 7.56597 40.5169 7.80866ZM27.4282 3.37019C28.0909 2.70737 28.9723 2.34233 29.9095 2.34233C30.8469 2.34233 31.7283 2.70737 32.391 3.37019L35.711 6.69022L17.261 17.3423H13.4562L27.4282 3.37019ZM57.6562 41.483C57.6562 42.1291 57.1305 42.6548 56.4844 42.6548H44.2969C42.0998 42.6548 40.3125 40.8675 40.3125 38.6705C40.3125 36.4734 42.0998 34.6861 44.2969 34.6861H56.4844C57.1305 34.6861 57.6562 35.2118 57.6562 35.858V41.483Z" fill="white"/>
<path d="M44.1016 37.4986C43.7934 37.4986 43.491 37.6239 43.273 37.842C43.0551 38.06 42.9297 38.3611 42.9297 38.6705C42.9297 38.9787 43.055 39.281 43.273 39.4989C43.491 39.7168 43.7934 39.8423 44.1016 39.8423C44.4109 39.8423 44.7121 39.717 44.93 39.4989C45.1491 39.281 45.2734 38.9787 45.2734 38.6705C45.2734 38.3623 45.1491 38.0599 44.93 37.842C44.7121 37.624 44.4109 37.4986 44.1016 37.4986Z" fill="white"/>
<path d="M27.6562 57.6548C27.348 57.6548 27.0457 57.7801 26.8277 57.9982C26.6098 58.2163 26.4844 58.5185 26.4844 58.8267C26.4844 59.1349 26.6096 59.4373 26.8277 59.6551C27.0457 59.8731 27.348 59.9986 27.6562 59.9986C27.9645 59.9986 28.2668 59.8732 28.4846 59.6551C28.7026 59.4373 28.8281 59.1349 28.8281 58.8267C28.8281 58.5185 28.7027 58.2162 28.4846 57.9982C28.2668 57.7802 27.9645 57.6548 27.6562 57.6548Z" fill="white"/>
</svg>
