<svg width="60" height="60" viewBox="0 0 60 60" fill="none" xmlns="http://www.w3.org/2000/svg">
<path d="M8.081 49.389L24.081 58.441C25.8862 59.4629 27.9252 60 29.9995 60C32.0738 60 34.1128 59.4629 35.918 58.441L51.918 49.389C53.7611 48.3441 55.2948 46.8299 56.363 45.0003C57.4313 43.1706 57.9961 41.0907 58 38.972V21.029C57.9971 18.9101 57.4327 16.8298 56.3644 15C55.296 13.1701 53.7618 11.6561 51.918 10.612L35.918 1.55901C34.1063 0.555759 32.0694 0.0294189 29.9985 0.0294189C27.9276 0.0294189 25.8907 0.555759 24.079 1.55901L8.079 10.612C6.23581 11.6565 4.70227 13.1708 3.63446 15.0006C2.56665 16.8304 2.0027 18.9104 2 21.029V38.972C2.00311 41.0908 2.56745 43.1708 3.6356 45.0006C4.70375 46.8304 6.23758 48.3446 8.081 49.389ZM4 21.029C4.00258 19.2641 4.47274 17.5314 5.36261 16.0072C6.25249 14.483 7.5303 13.2218 9.066 12.352L25.066 3.29901C26.5714 2.44754 28.2715 2.00005 30.001 2.00005C31.7305 2.00005 33.4306 2.44754 34.936 3.29901L50.936 12.353C52.4713 13.2229 53.7488 14.484 54.6383 16.0079C55.5278 17.5319 55.9977 19.2644 56 21.029V38.972C55.9972 40.7366 55.5271 42.4691 54.6374 43.993C53.7478 45.517 52.4703 46.7781 50.935 47.648L34.935 56.701C33.425 57.5368 31.7274 57.9752 30.0015 57.9752C28.2756 57.9752 26.578 57.5368 25.068 56.701L9.068 47.648C7.53201 46.7786 6.25383 45.5177 5.36359 43.9937C4.47336 42.4697 4.00286 40.737 4 38.972V21.029Z" fill="white"/>
<mask id="path-2-inside-1_312_4536" fill="white">
<path d="M10.543 45.037L26.543 54.09C27.5984 54.6834 28.7888 54.995 29.9995 54.995C31.2103 54.995 32.4006 54.6834 33.456 54.09L49.456 45.037C50.53 44.4294 51.4237 43.548 52.0463 42.4827C52.6688 41.4173 52.9979 40.2059 53 38.972V21.029C52.9981 19.7949 52.6691 18.5834 52.0465 17.5178C51.424 16.4522 50.5301 15.5707 49.456 14.963L33.456 5.91001C32.4006 5.31656 31.2103 5.00482 29.9995 5.00482C28.7887 5.00482 27.5984 5.31656 26.543 5.91001L10.543 14.963C9.46927 15.5711 8.57578 16.4527 7.95344 17.5182C7.3311 18.5837 7.00213 19.7951 7 21.029V38.972C7.00231 40.2058 7.33136 41.4169 7.95369 42.4822C8.57602 43.5476 9.46942 44.429 10.543 45.037ZM9 21.029C9.00108 20.1483 9.23572 19.2835 9.68 18.523C10.1243 17.7626 10.7623 17.1335 11.529 16.7L27.529 7.64601C28.2837 7.22182 29.1348 6.99901 30.0005 6.99901C30.8662 6.99901 31.7173 7.22182 32.472 7.64601L48.472 16.7C49.2384 17.1337 49.8762 17.7628 50.3203 18.5233C50.7644 19.2838 50.9989 20.1484 51 21.029V38.972C50.9986 39.8525 50.764 40.7168 50.3199 41.4771C49.8758 42.2373 49.2382 42.8663 48.472 43.3L32.472 52.353C31.7171 52.7764 30.866 52.9987 30.0005 52.9987C29.135 52.9987 28.2839 52.7764 27.529 52.353L11.529 43.3C10.7625 42.8665 10.1246 42.2376 9.68039 41.4773C9.23613 40.717 9.00136 39.8526 9 38.972V21.029Z"/>
</mask>
<path d="M26.543 54.09L24.0807 58.4417L24.0926 58.4484L26.543 54.09ZM33.456 54.09L35.9064 58.4484L35.9183 58.4417L33.456 54.09ZM49.456 45.037L46.994 40.6852L46.9938 40.6853L49.456 45.037ZM53 38.972L58 38.9805V38.972H53ZM53 21.029H58L58 21.0212L53 21.029ZM49.456 14.963L46.9938 19.3147L46.994 19.3148L49.456 14.963ZM33.456 5.91001L35.9183 1.55829L35.9067 1.5518L33.456 5.91001ZM29.9995 5.00482V10.0048V5.00482ZM26.543 5.91001L24.0923 1.55179L24.0808 1.5583L26.543 5.91001ZM10.543 14.963L8.08075 10.6113L8.07916 10.6122L10.543 14.963ZM7 21.029L2 21.0204V21.029H7ZM7 38.972H1.99999L2.00001 38.9814L7 38.972ZM9 21.029L4 21.0229V21.029H9ZM11.529 16.7L13.9898 21.0525L13.9915 21.0516L11.529 16.7ZM27.529 7.64601L25.0791 3.28736L25.0728 3.29088L25.0665 3.29442L27.529 7.64601ZM32.472 7.64601L34.9345 3.29442L34.9282 3.29088L34.9219 3.28736L32.472 7.64601ZM48.472 16.7L46.0096 21.0516L46.0097 21.0517L48.472 16.7ZM51 21.029H56L56 21.0229L51 21.029ZM51 38.972L56 38.9797V38.972H51ZM48.472 43.3L50.9343 47.6517L50.9349 47.6514L48.472 43.3ZM32.472 52.353L34.9176 56.7141L34.9259 56.7094L34.9343 56.7047L32.472 52.353ZM30.0005 52.9987V47.9987V52.9987ZM27.529 52.353L25.0668 56.7047L25.0751 56.7094L25.0834 56.7141L27.529 52.353ZM11.529 43.3L13.9912 38.9483L13.9903 38.9478L11.529 43.3ZM9 38.972H3.99999L4.00001 38.9797L9 38.972ZM8.08075 49.3887L24.0808 58.4417L29.0053 49.7383L13.0052 40.6853L8.08075 49.3887ZM24.0926 58.4484C25.8962 59.4624 27.9304 59.995 29.9995 59.995V49.995C29.6471 49.995 29.3006 49.9043 28.9934 49.7316L24.0926 58.4484ZM29.9995 59.995C32.0686 59.995 34.1028 59.4624 35.9064 58.4484L31.0056 49.7316C30.6984 49.9043 30.3519 49.995 29.9995 49.995V59.995ZM35.9183 58.4417L51.9183 49.3887L46.9938 40.6853L30.9938 49.7383L35.9183 58.4417ZM51.918 49.3888C53.7611 48.3461 55.2949 46.8336 56.3633 45.0052L47.7293 39.9601C47.5526 40.2625 47.2988 40.5127 46.994 40.6852L51.918 49.3888ZM56.3633 45.0052C57.4317 43.1769 57.9964 41.0981 58 38.9805L48 38.9635C47.9994 39.3138 47.906 39.6576 47.7293 39.9601L56.3633 45.0052ZM58 38.972V21.029H48V38.972H58ZM58 21.0212C57.9967 18.9033 57.4321 16.8242 56.3637 14.9955L47.7293 20.0401C47.9061 20.3426 47.9995 20.6865 48 21.0368L58 21.0212ZM56.3637 14.9955C55.2954 13.1669 53.7614 11.654 51.918 10.6112L46.994 19.3148C47.2989 19.4873 47.5526 19.7376 47.7293 20.0401L56.3637 14.9955ZM51.9183 10.6113L35.9183 1.5583L30.9938 10.2617L46.9938 19.3147L51.9183 10.6113ZM35.9067 1.5518C34.1031 0.537582 32.0687 0.00482178 29.9995 0.00482178V10.0048C30.3518 10.0048 30.6982 10.0955 31.0053 10.2682L35.9067 1.5518ZM29.9995 0.00482178C27.9303 0.00482178 25.8959 0.537582 24.0923 1.5518L28.9937 10.2682C29.3008 10.0955 29.6472 10.0048 29.9995 10.0048V0.00482178ZM24.0808 1.5583L8.08075 10.6113L13.0052 19.3147L29.0053 10.2617L24.0808 1.5583ZM8.07916 10.6122C6.23683 11.6555 4.70376 13.1682 3.63594 14.9965L12.2709 20.0399C12.4478 19.7372 12.7017 19.4866 13.0068 19.3138L8.07916 10.6122ZM3.63594 14.9965C2.56812 16.8247 2.00367 18.9031 2.00001 21.0204L12 21.0376C12.0006 20.687 12.0941 20.3427 12.2709 20.0399L3.63594 14.9965ZM2 21.029V38.972H12V21.029H2ZM2.00001 38.9814C2.00397 41.0983 2.56857 43.1764 3.63637 45.0043L12.271 39.9602C12.0942 39.6574 12.0006 39.3133 12 38.9627L2.00001 38.9814ZM3.63637 45.0043C4.70418 46.8322 6.23709 48.3447 8.07916 49.3878L13.0068 40.6862C12.7017 40.5134 12.4479 40.2629 12.271 39.9602L3.63637 45.0043ZM14 21.0351C14 21.0387 13.999 21.0421 13.9973 21.0452L5.36273 16.0009C4.47239 17.5249 4.00216 19.2578 4 21.0229L14 21.0351ZM13.9973 21.0452C13.9955 21.0482 13.9929 21.0508 13.9898 21.0525L9.06816 12.3475C7.53169 13.2162 6.25308 14.4769 5.36273 16.0009L13.9973 21.0452ZM13.9915 21.0516L29.9915 11.9976L25.0665 3.29442L9.06655 12.3484L13.9915 21.0516ZM29.9789 12.0047C29.9855 12.001 29.993 11.999 30.0005 11.999V1.99901C28.2766 1.99901 26.5818 2.44269 25.0791 3.28736L29.9789 12.0047ZM30.0005 11.999C30.0081 11.999 30.0155 12.001 30.0221 12.0047L34.9219 3.28736C33.4192 2.44269 31.7244 1.99901 30.0005 1.99901V11.999ZM30.0095 11.9976L46.0096 21.0516L50.9345 12.3484L34.9345 3.29442L30.0095 11.9976ZM46.0097 21.0517C46.0067 21.05 46.0043 21.0476 46.0026 21.0447L54.638 16.0019C53.7481 14.4781 52.4702 13.2174 50.9344 12.3484L46.0097 21.0517ZM46.0026 21.0447C46.0009 21.0418 46 21.0385 46 21.0351L56 21.0229C55.9978 19.2582 55.5279 17.5257 54.638 16.0019L46.0026 21.0447ZM46 21.029V38.972H56V21.029H46ZM46 38.9643C46 38.9611 46.0009 38.958 46.0025 38.9552L54.6374 43.9989C55.5271 42.4757 55.9973 40.7438 56 38.9797L46 38.9643ZM46.0025 38.9552C46.0041 38.9525 46.0064 38.9502 46.0091 38.9487L50.9349 47.6514C52.4701 46.7824 53.7476 45.5222 54.6374 43.9989L46.0025 38.9552ZM46.0098 38.9483L30.0098 48.0013L34.9343 56.7047L50.9343 47.6517L46.0098 38.9483ZM30.0264 47.9919C30.0185 47.9963 30.0096 47.9987 30.0005 47.9987V57.9987C31.7225 57.9987 33.4156 57.5564 34.9176 56.7141L30.0264 47.9919ZM30.0005 47.9987C29.9914 47.9987 29.9825 47.9963 29.9746 47.9919L25.0834 56.7141C26.5854 57.5564 28.2785 57.9987 30.0005 57.9987V47.9987ZM29.9913 48.0013L13.9912 38.9483L9.06675 47.6517L25.0668 56.7047L29.9913 48.0013ZM13.9903 38.9478C13.9933 38.9494 13.9957 38.9518 13.9974 38.9547L5.36337 43.9999C6.25359 45.5234 7.53177 46.7836 9.06765 47.6522L13.9903 38.9478ZM13.9974 38.9547C13.9991 38.9576 14 38.9609 14 38.9643L4.00001 38.9797C4.00273 40.7442 4.47316 42.4764 5.36337 43.9999L13.9974 38.9547ZM14 38.972V21.029H4V38.972H14Z" fill="white" mask="url(#path-2-inside-1_312_4536)"/>
<path d="M14.0001 39C14.2653 39 14.5196 38.8947 14.7072 38.7071C14.8947 38.5196 15.0001 38.2652 15.0001 38V26.236L21.1051 38.447C21.1881 38.6132 21.3159 38.753 21.474 38.8507C21.6321 38.9484 21.8142 39.0001 22.0001 39C22.0774 38.9997 22.1546 38.991 22.2301 38.974C22.4494 38.9222 22.6448 38.7978 22.7845 38.621C22.9243 38.4442 23.0002 38.2254 23.0001 38V22C23.0001 21.7348 22.8947 21.4804 22.7072 21.2929C22.5196 21.1054 22.2653 21 22.0001 21C21.7348 21 21.4805 21.1054 21.293 21.2929C21.1054 21.4804 21.0001 21.7348 21.0001 22V33.764L14.9001 21.553C14.801 21.3484 14.6352 21.1837 14.4299 21.0859C14.2247 20.9882 13.9923 20.9633 13.771 21.0153C13.5497 21.0674 13.3528 21.1933 13.2126 21.3723C13.0725 21.5513 12.9975 21.7727 13.0001 22V38C13.0001 38.2652 13.1054 38.5196 13.293 38.7071C13.4805 38.8947 13.7348 39 14.0001 39Z" fill="white" stroke="white" stroke-width="0.3"/>
<path d="M27 39C27.2652 39 27.5196 38.8946 27.7071 38.7071C27.8946 38.5196 28 38.2652 28 38V31H32C32.2652 31 32.5196 30.8946 32.7071 30.7071C32.8946 30.5196 33 30.2652 33 30C33 29.7348 32.8946 29.4804 32.7071 29.2929C32.5196 29.1054 32.2652 29 32 29H28V23H35C35.2652 23 35.5196 22.8946 35.7071 22.7071C35.8946 22.5196 36 22.2652 36 22C36 21.7348 35.8946 21.4804 35.7071 21.2929C35.5196 21.1054 35.2652 21 35 21H27C26.7348 21 26.4804 21.1054 26.2929 21.2929C26.1054 21.4804 26 21.7348 26 22V38C26 38.2652 26.1054 38.5196 26.2929 38.7071C26.4804 38.8946 26.7348 39 27 39Z" fill="white" stroke="white" stroke-width="0.3"/>
<path d="M38 23H41V38C41 38.2652 41.1054 38.5196 41.2929 38.7071C41.4804 38.8946 41.7348 39 42 39C42.2652 39 42.5196 38.8946 42.7071 38.7071C42.8946 38.5196 43 38.2652 43 38V23H46C46.2652 23 46.5196 22.8946 46.7071 22.7071C46.8946 22.5196 47 22.2652 47 22C47 21.7348 46.8946 21.4804 46.7071 21.2929C46.5196 21.1054 46.2652 21 46 21H38C37.7348 21 37.4804 21.1054 37.2929 21.2929C37.1054 21.4804 37 21.7348 37 22C37 22.2652 37.1054 22.5196 37.2929 22.7071C37.4804 22.8946 37.7348 23 38 23Z" fill="white" stroke="white" stroke-width="0.3"/>
</svg>
