<svg width="160" height="54" viewBox="0 0 160 54" fill="none" xmlns="http://www.w3.org/2000/svg">
<g clip-path="url(#clip0_1_2754)">
<path d="M144 0H16C7.16344 0 0 7.16344 0 16V38C0 46.8366 7.16344 54 16 54H144C152.837 54 160 46.8366 160 38V16C160 7.16344 152.837 0 144 0Z" fill="#343434"/>
<path fill-rule="evenodd" clip-rule="evenodd" d="M41.9209 21.6738C41.9941 22.0245 41.7283 22.3545 41.3721 22.3545H27.7153C27.359 22.3545 27.0933 22.0245 27.1665 21.6738C27.6183 19.5083 28.989 17.6835 30.8491 16.6293L29.6816 14.5107C29.6026 14.3673 29.6541 14.1865 29.7967 14.1071C29.9393 14.0276 30.119 14.0793 30.1981 14.2228L31.3744 16.3575C32.3378 15.9078 33.4116 15.6566 34.5437 15.6566C35.6758 15.6566 36.7495 15.9078 37.713 16.3575L38.8893 14.2229C38.9683 14.0795 39.1477 14.0275 39.2907 14.1071C39.4333 14.1866 39.4848 14.3673 39.4058 14.5108L38.2383 16.6294C40.0984 17.6835 41.4691 19.5084 41.9209 21.6738ZM37.9837 19.8358C38.3344 19.8358 38.6187 19.5498 38.6187 19.1971C38.6187 18.8444 38.3344 18.5584 37.9837 18.5584C37.6329 18.5584 37.3486 18.8444 37.3486 19.1971C37.3486 19.5499 37.633 19.8358 37.9837 19.8358ZM31.1036 18.5584C31.4543 18.5584 31.7387 18.8443 31.7387 19.1971C31.7387 19.5498 31.4544 19.8358 31.1036 19.8358C30.7529 19.8358 30.4686 19.5499 30.4686 19.1971C30.4686 18.8444 30.7529 18.5584 31.1036 18.5584ZM23.0344 24.8365C23.0344 23.9188 23.7741 23.1749 24.6865 23.1749C25.5989 23.1749 26.3385 23.9189 26.3386 24.8365V31.5851C26.3386 32.5028 25.5989 33.2467 24.6865 33.2467C23.7741 33.2467 23.0344 32.5028 23.0344 31.5851V24.8365ZM27.6028 23.1776H41.5176C41.8271 23.1776 42.078 23.43 42.0781 23.7413V35.477C42.0781 35.7883 41.8272 36.0406 41.5176 36.0406H39.0025V39.9956C39.0025 40.9133 38.2628 41.6572 37.3504 41.6572C36.4379 41.6572 35.6983 40.9132 35.6983 39.9956V36.0406H33.3876V39.9956C33.3876 40.9133 32.6479 41.6572 31.7355 41.6572C30.8231 41.6572 30.0834 40.9132 30.0834 39.9956V36.0406H27.6028C27.2932 36.0406 27.0423 35.7883 27.0423 35.477V23.7413C27.0423 23.43 27.2932 23.1776 27.6028 23.1776ZM44.4338 23.1749C43.5214 23.1749 42.7817 23.9188 42.7817 24.8365V31.5851C42.7817 32.5028 43.5213 33.2467 44.4338 33.2467C45.3462 33.2467 46.0859 32.5028 46.0859 31.5851V24.8365C46.0859 23.9189 45.3462 23.1749 44.4338 23.1749Z" fill="#6DCC00"/>
<path d="M62.4012 20.9118C62.7413 20.9118 63.0208 20.8764 63.2397 20.8057C63.6303 20.6744 63.9503 20.4218 64.1995 20.048C64.3982 19.7483 64.5413 19.3644 64.6288 18.8963C64.6793 18.6168 64.7046 18.3574 64.7046 18.1183C64.7046 17.199 64.5211 16.4851 64.154 15.9766C63.7903 15.468 63.2027 15.2138 62.3911 15.2138H60.6079V20.9118H62.4012ZM59.5976 14.35H62.6032C63.6236 14.35 64.415 14.712 64.9774 15.4361C65.4792 16.0894 65.73 16.9262 65.73 17.9466C65.73 18.7346 65.5819 19.4469 65.2855 20.0833C64.7635 21.2081 63.8661 21.7705 62.5931 21.7705H59.5976V14.35ZM69.0539 21.1845C69.6567 21.1845 70.0692 20.9572 70.2914 20.5026C70.5171 20.0446 70.6299 19.5361 70.6299 18.9771C70.6299 18.4719 70.5491 18.0611 70.3874 17.7445C70.1315 17.2461 69.6903 16.9969 69.064 16.9969C68.5083 16.9969 68.1042 17.2091 67.8516 17.6334C67.5991 18.0577 67.4728 18.5696 67.4728 19.169C67.4728 19.7449 67.5991 20.2248 67.8516 20.6087C68.1042 20.9926 68.5049 21.1845 69.0539 21.1845ZM69.0892 16.2039C69.7863 16.2039 70.3756 16.4362 70.8572 16.901C71.3388 17.3657 71.5796 18.0493 71.5796 18.9518C71.5796 19.824 71.3674 20.5447 70.9431 21.1138C70.5188 21.683 69.8604 21.9675 68.968 21.9675C68.2237 21.9675 67.6327 21.7166 67.1949 21.2149C66.7572 20.7097 66.5383 20.0328 66.5383 19.1842C66.5383 18.2749 66.7689 17.5509 67.2303 17.0121C67.6917 16.4733 68.3113 16.2039 69.0892 16.2039ZM73.0849 16.3605L74.1255 20.6238L75.1812 16.3605H76.2016L77.2624 20.5986L78.3686 16.3605H79.2779L77.7069 21.7705H76.7623L75.6611 17.5829L74.5952 21.7705H73.6506L72.0897 16.3605H73.0849ZM80.1417 16.3605H81.0055V17.1283C81.2614 16.8117 81.5325 16.5844 81.8187 16.4463C82.105 16.3083 82.4232 16.2392 82.7735 16.2392C83.5413 16.2392 84.0599 16.507 84.3293 17.0424C84.4775 17.3354 84.5515 17.7546 84.5515 18.3002V21.7705H83.6271V18.3608C83.6271 18.0308 83.5783 17.7647 83.4807 17.5627C83.319 17.2259 83.026 17.0576 82.6017 17.0576C82.3862 17.0576 82.2094 17.0794 82.0713 17.1232C81.8221 17.1973 81.6032 17.3455 81.4146 17.5677C81.2631 17.7462 81.1637 17.9314 81.1166 18.1234C81.0728 18.312 81.0509 18.5831 81.0509 18.9367V21.7705H80.1417V16.3605ZM85.9255 14.35H86.8348V21.7705H85.9255V14.35ZM90.3506 21.1845C90.9534 21.1845 91.3659 20.9572 91.5881 20.5026C91.8138 20.0446 91.9266 19.5361 91.9266 18.9771C91.9266 18.4719 91.8458 18.0611 91.6841 17.7445C91.4282 17.2461 90.987 16.9969 90.3607 16.9969C89.805 16.9969 89.4009 17.2091 89.1483 17.6334C88.8957 18.0577 88.7695 18.5696 88.7695 19.169C88.7695 19.7449 88.8957 20.2248 89.1483 20.6087C89.4009 20.9926 89.8016 21.1845 90.3506 21.1845ZM90.3859 16.2039C91.083 16.2039 91.6723 16.4362 92.1539 16.901C92.6355 17.3657 92.8762 18.0493 92.8762 18.9518C92.8762 19.824 92.6641 20.5447 92.2398 21.1138C91.8155 21.683 91.1571 21.9675 90.2647 21.9675C89.5204 21.9675 88.9294 21.7166 88.4916 21.2149C88.0538 20.7097 87.835 20.0328 87.835 19.1842C87.835 18.2749 88.0656 17.5509 88.527 17.0121C88.9884 16.4733 89.608 16.2039 90.3859 16.2039ZM94.6594 20.3309C94.6594 20.5935 94.7554 20.8006 94.9473 20.9522C95.1393 21.1037 95.3666 21.1795 95.6293 21.1795C95.9492 21.1795 96.259 21.1054 96.5587 20.9572C97.0639 20.7114 97.3164 20.309 97.3164 19.7499V19.0175C97.2053 19.0882 97.0622 19.1471 96.8871 19.1943C96.7119 19.2414 96.5402 19.2751 96.3718 19.2953L95.8212 19.366C95.4912 19.4098 95.2437 19.4789 95.0787 19.5731C94.7991 19.7314 94.6594 19.984 94.6594 20.3309ZM96.8618 18.4922C97.0706 18.4652 97.2104 18.3777 97.2811 18.2295C97.3215 18.1487 97.3417 18.0325 97.3417 17.8809C97.3417 17.5711 97.2306 17.3472 97.0083 17.2091C96.7894 17.0677 96.4745 16.9969 96.0637 16.9969C95.5889 16.9969 95.2521 17.1249 95.0534 17.3808C94.9423 17.5223 94.8699 17.7328 94.8362 18.0123H93.9876C94.0044 17.3455 94.2199 16.8824 94.6341 16.6231C95.0517 16.3605 95.535 16.2291 96.0839 16.2291C96.7204 16.2291 97.2373 16.3504 97.6347 16.5928C98.0287 16.8353 98.2257 17.2125 98.2257 17.7243V20.8411C98.2257 20.9353 98.2442 21.0111 98.2812 21.0684C98.3217 21.1256 98.4042 21.1542 98.5288 21.1542C98.5692 21.1542 98.6146 21.1526 98.6652 21.1492C98.7157 21.1425 98.7695 21.134 98.8268 21.1239V21.7958C98.6854 21.8362 98.5776 21.8614 98.5035 21.8715C98.4294 21.8816 98.3284 21.8867 98.2004 21.8867C97.8872 21.8867 97.6599 21.7756 97.5185 21.5533C97.4444 21.4354 97.3922 21.2687 97.3619 21.0532C97.1767 21.2957 96.9106 21.5062 96.5638 21.6846C96.2169 21.8631 95.8347 21.9524 95.4171 21.9524C94.9153 21.9524 94.5045 21.8008 94.1846 21.4977C93.868 21.1913 93.7097 20.8091 93.7097 20.3511C93.7097 19.8493 93.8663 19.4603 94.1795 19.1842C94.4927 18.908 94.9035 18.738 95.4121 18.674L96.8618 18.4922ZM100.297 19.1286C100.297 19.7079 100.42 20.1928 100.666 20.5834C100.911 20.9741 101.305 21.1694 101.848 21.1694C102.268 21.1694 102.614 20.9892 102.883 20.6289C103.156 20.2652 103.292 19.7449 103.292 19.068C103.292 18.3844 103.152 17.8792 102.873 17.5526C102.593 17.2226 102.248 17.0576 101.837 17.0576C101.379 17.0576 101.007 17.2327 100.721 17.5829C100.438 17.9331 100.297 18.4484 100.297 19.1286ZM101.666 16.2645C102.08 16.2645 102.427 16.352 102.706 16.5272C102.868 16.6282 103.051 16.805 103.257 17.0576V14.3247H104.131V21.7705H103.312V21.0178C103.1 21.3512 102.849 21.592 102.56 21.7402C102.27 21.8884 101.938 21.9625 101.565 21.9625C100.962 21.9625 100.44 21.7099 99.9987 21.2048C99.5576 20.6962 99.337 20.021 99.337 19.1791C99.337 18.3911 99.5374 17.7092 99.9381 17.1333C100.342 16.5541 100.918 16.2645 101.666 16.2645ZM111.723 18.7296L110.597 15.4512L109.399 18.7296H111.723ZM110.071 14.35H111.208L113.9 21.7705H112.799L112.046 19.5479H109.111L108.308 21.7705H107.278L110.071 14.35ZM114.91 14.35H118.249C118.909 14.35 119.442 14.5369 119.846 14.9107C120.25 15.2811 120.452 15.8031 120.452 16.4766C120.452 17.0559 120.272 17.561 119.911 17.9921C119.551 18.4197 118.997 18.6336 118.249 18.6336H115.916V21.7705H114.91V14.35ZM119.436 16.4817C119.436 15.9361 119.234 15.5657 118.83 15.3704C118.608 15.266 118.303 15.2138 117.916 15.2138H115.916V17.785H117.916C118.367 17.785 118.733 17.689 119.012 17.497C119.295 17.3051 119.436 16.9666 119.436 16.4817ZM121.715 14.35H122.695V17.9668L126.311 14.35H127.701L124.614 17.3404L127.786 21.7705H126.478L123.882 18.0476L122.695 19.1842V21.7705H121.715V14.35Z" fill="white"/>
<path d="M65.7836 33.135L63.781 27.3068L61.6527 33.135H65.7836ZM62.8471 25.3491H64.8676L69.6541 38.5411H67.6964L66.3583 34.5898H61.1408L59.713 38.5411H57.881L62.8471 25.3491ZM71.064 28.9233H72.5996V30.2883C73.0546 29.7255 73.5366 29.3214 74.0455 29.0759C74.5543 28.8305 75.1201 28.7077 75.7427 28.7077C77.1077 28.7077 78.0297 29.1837 78.5086 30.1356C78.7721 30.6564 78.9038 31.4018 78.9038 32.3717V38.5411H77.2604V32.4794C77.2604 31.8927 77.1736 31.4198 77 31.0606C76.7126 30.4619 76.1917 30.1625 75.4374 30.1625C75.0542 30.1625 74.7399 30.2014 74.4945 30.2793C74.0514 30.411 73.6623 30.6744 73.327 31.0695C73.0576 31.3868 72.881 31.7161 72.7972 32.0574C72.7194 32.3926 72.6805 32.8746 72.6805 33.5032V38.5411H71.064V28.9233ZM82.3253 33.8444C82.3253 34.8742 82.5438 35.7363 82.9808 36.4308C83.4179 37.1252 84.1183 37.4725 85.0822 37.4725C85.8306 37.4725 86.4442 37.1522 86.9232 36.5116C87.4081 35.865 87.6506 34.94 87.6506 33.7367C87.6506 32.5213 87.4021 31.6233 86.9052 31.0426C86.4083 30.4559 85.7946 30.1625 85.0642 30.1625C84.25 30.1625 83.5885 30.4738 83.0796 31.0965C82.5767 31.7191 82.3253 32.6351 82.3253 33.8444ZM84.7589 28.7526C85.4953 28.7526 86.1119 28.9083 86.6088 29.2196C86.8962 29.3992 87.2225 29.7135 87.5877 30.1625V25.3042H89.1413V38.5411H87.6865V37.2031C87.3093 37.7958 86.8633 38.2238 86.3484 38.4872C85.8335 38.7507 85.2438 38.8824 84.5793 38.8824C83.5077 38.8824 82.5797 38.4334 81.7954 37.5353C81.0111 36.6313 80.619 35.431 80.619 33.9342C80.619 32.5333 80.9752 31.321 81.6877 30.2972C82.4061 29.2675 83.4298 28.7526 84.7589 28.7526ZM91.5839 28.9233H93.1195V30.5846C93.2453 30.2613 93.5536 29.8692 94.0445 29.4082C94.5354 28.9412 95.1012 28.7077 95.7418 28.7077C95.7717 28.7077 95.8226 28.7107 95.8944 28.7167C95.9663 28.7227 96.089 28.7347 96.2626 28.7526V30.4589C96.1668 30.4409 96.077 30.4289 95.9932 30.423C95.9154 30.417 95.8286 30.414 95.7328 30.414C94.9186 30.414 94.293 30.6774 93.8559 31.2042C93.4189 31.7251 93.2004 32.3268 93.2004 33.0093V38.5411H91.5839V28.9233ZM101.48 37.4994C102.552 37.4994 103.285 37.0953 103.68 36.2871C104.081 35.4729 104.282 34.5688 104.282 33.575C104.282 32.677 104.138 31.9466 103.851 31.3838C103.396 30.4978 102.612 30.0548 101.498 30.0548C100.51 30.0548 99.7919 30.4319 99.3429 31.1863C98.8938 31.9406 98.6693 32.8506 98.6693 33.9163C98.6693 34.94 98.8938 35.7932 99.3429 36.4757C99.7919 37.1582 100.504 37.4994 101.48 37.4994ZM101.543 28.6449C102.782 28.6449 103.83 29.058 104.686 29.8841C105.542 30.7103 105.97 31.9257 105.97 33.5301C105.97 35.0807 105.593 36.3619 104.839 37.3737C104.084 38.3855 102.914 38.8913 101.327 38.8913C100.004 38.8913 98.9537 38.4453 98.1754 37.5533C97.3971 36.6553 97.008 35.4519 97.008 33.9432C97.008 32.3268 97.4181 31.0396 98.2383 30.0817C99.0585 29.1238 100.16 28.6449 101.543 28.6449ZM107.901 28.9682H109.544V38.5411H107.901V28.9682ZM107.901 25.3491H109.544V27.1811H107.901V25.3491ZM113.02 33.8444C113.02 34.8742 113.238 35.7363 113.675 36.4308C114.112 37.1252 114.813 37.4725 115.777 37.4725C116.525 37.4725 117.139 37.1522 117.618 36.5116C118.103 35.865 118.345 34.94 118.345 33.7367C118.345 32.5213 118.097 31.6233 117.6 31.0426C117.103 30.4559 116.489 30.1625 115.759 30.1625C114.945 30.1625 114.283 30.4738 113.774 31.0965C113.271 31.7191 113.02 32.6351 113.02 33.8444ZM115.453 28.7526C116.19 28.7526 116.806 28.9083 117.303 29.2196C117.591 29.3992 117.917 29.7135 118.282 30.1625V25.3042H119.836V38.5411H118.381V37.2031C118.004 37.7958 117.558 38.2238 117.043 38.4872C116.528 38.7507 115.938 38.8824 115.274 38.8824C114.202 38.8824 113.274 38.4334 112.49 37.5353C111.706 36.6313 111.314 35.431 111.314 33.9342C111.314 32.5333 111.67 31.321 112.382 30.2972C113.101 29.2675 114.124 28.7526 115.453 28.7526Z" fill="white"/>
</g>
<defs>
<clipPath id="clip0_1_2754">
<rect width="160" height="54" fill="white"/>
</clipPath>
</defs>
</svg>
