<svg width="161" height="54" viewBox="0 0 161 54" fill="none" xmlns="http://www.w3.org/2000/svg">
<g clip-path="url(#clip0_1_2748)">
<path d="M144.719 0H16.7188C7.88219 0 0.71875 7.16344 0.71875 16V38C0.71875 46.8366 7.88219 54 16.7188 54H144.719C153.555 54 160.719 46.8366 160.719 38V16C160.719 7.16344 153.555 0 144.719 0Z" fill="#343434"/>
<path fill-rule="evenodd" clip-rule="evenodd" d="M96.9954 36.296C95.1112 36.296 93.7324 35.3666 93.5737 33.9511L91.3811 33.951C91.5195 36.5328 93.6626 38.1661 96.8367 38.1661C100.229 38.1661 102.362 36.4935 102.362 33.823C102.362 31.7351 101.142 30.5587 98.2053 29.8661L96.6284 29.4799C94.7836 29.0253 94.0295 28.4315 94.0295 27.4224C94.0295 26.1562 95.2102 25.2862 96.9357 25.2862C98.6612 25.2862 99.8419 26.146 99.9713 27.5705H102.134C102.064 25.1077 99.9905 23.416 96.9661 23.416C93.9102 23.416 91.7582 25.1077 91.7582 27.5705C91.7582 29.5597 92.9783 30.7855 95.6065 31.4186L97.4614 31.8642C99.3163 32.3189 100.1 32.9823 100.1 34.0902C100.1 35.3665 98.8008 36.296 96.9954 36.296ZM59.6786 34.07H54.223L52.9129 37.9282H50.6021L55.7696 23.654H58.1704L63.3378 37.9282H60.9876L59.6786 34.07ZM54.7881 32.2897H59.1125L56.9807 26.0282H56.9211L54.7881 32.2897ZM70.143 38.0371C72.7621 38.0371 74.4977 35.9593 74.4977 32.7253C74.4977 29.5002 72.7519 27.4123 70.1036 27.4123C68.7408 27.3685 67.4642 28.0754 66.7809 29.2522H66.7415V27.5212H64.6682V41.371H66.8101V36.2163H66.8597C67.5139 37.4005 68.7891 38.1077 70.143 38.0371ZM72.2961 32.7253C72.2961 30.6183 71.2043 29.2331 69.5385 29.2331C67.902 29.2331 66.8012 30.6475 66.8012 32.7253C66.8012 34.8222 67.902 36.2265 69.5385 36.2265C71.2043 36.2265 72.2961 34.8514 72.2961 32.7253ZM81.6281 38.0371C84.2473 38.0371 85.9829 35.9593 85.9829 32.7253C85.9829 29.5002 84.2372 27.4123 81.5887 27.4123C80.2259 27.3685 78.9493 28.0754 78.266 29.2522H78.2267V27.5212H76.1534V41.371H78.2953V36.2163H78.3449C78.9991 37.4005 80.2743 38.1077 81.6281 38.0371ZM83.7813 32.7253C83.7813 30.6183 82.6895 29.2331 81.0237 29.2331C79.3871 29.2331 78.2863 30.6475 78.2863 32.7253C78.2863 34.8222 79.3871 36.2265 81.0237 36.2265C82.6895 36.2265 83.7813 34.8514 83.7813 32.7253ZM106.985 25.0583V27.5212H108.969V29.2128H106.985V34.9501C106.985 35.8414 107.382 36.2567 108.255 36.2567C108.49 36.2526 108.725 36.2361 108.959 36.2073V37.8889C108.567 37.9619 108.168 37.995 107.77 37.9876C105.657 37.9876 104.833 37.1963 104.833 35.1779V29.2128H103.316V27.5212H104.833V25.0583H106.985ZM115.068 27.3933C112.052 27.3933 110.119 29.4509 110.119 32.7253C110.119 36.0087 112.033 38.0573 115.068 38.0573C118.103 38.0573 120.018 36.0087 120.018 32.7253C120.018 29.4508 118.093 27.3933 115.068 27.3933ZM117.835 32.7253C117.835 30.4791 116.803 29.1534 115.068 29.1534C113.332 29.1534 112.301 30.4893 112.301 32.7253C112.301 34.9805 113.332 36.2961 115.068 36.2961C116.803 36.2961 117.835 34.9805 117.835 32.7253ZM123.827 27.5211H121.784V37.9281H123.926V31.7553C123.854 31.1308 124.06 30.5064 124.49 30.0461C124.919 29.5858 125.528 29.3355 126.158 29.361C126.483 29.3515 126.809 29.3951 127.12 29.49V27.4919C126.879 27.4381 126.633 27.4114 126.386 27.4122C125.209 27.3674 124.161 28.1522 123.876 29.2925H123.827V27.5211ZM136.996 34.8716C136.708 36.7608 134.863 38.0573 132.503 38.0573C129.467 38.0573 127.583 36.0289 127.583 32.7747C127.583 29.5104 129.477 27.3933 132.413 27.3933C135.3 27.3933 137.115 29.3712 137.115 32.5266V33.2585H129.745V33.3876C129.676 34.1624 129.944 34.9293 130.481 35.4933C131.019 36.0573 131.773 36.364 132.552 36.3354C133.592 36.4325 134.572 35.8372 134.962 34.8716H136.996ZM134.972 31.7656H129.755C129.753 31.0629 130.033 30.3887 130.532 29.8927C131.031 29.3967 131.708 29.1201 132.413 29.1242C133.112 29.1093 133.785 29.3858 134.271 29.8872C134.757 30.3886 135.011 31.0694 134.972 31.7656Z" fill="white"/>
<path fill-rule="evenodd" clip-rule="evenodd" d="M79.0321 12.5718H80.0564V19.7684H79.0321V12.5718ZM56.9465 13.8499C56.3197 13.1897 55.429 12.8447 54.5197 12.9098H52.0356V19.7685H54.5197C56.5682 19.7685 57.7557 18.509 57.7557 16.3178C57.8703 15.4158 57.5734 14.5101 56.9465 13.8499ZM54.4004 18.7985H53.1037V13.879H54.4004C55.0468 13.8433 55.6754 14.0975 56.1143 14.5721C56.5531 15.0467 56.7564 15.6921 56.6684 16.3318C56.7633 16.9741 56.5629 17.6249 56.123 18.1034C55.683 18.5819 55.0502 18.8373 54.4004 18.7985ZM58.9623 17.1782C58.8733 16.2504 59.3193 15.3525 60.1134 14.8611C60.9074 14.3697 61.9122 14.3697 62.7062 14.8611C63.5003 15.3525 63.9463 16.2504 63.8573 17.1782C63.948 18.1069 63.5024 19.0065 62.7076 19.499C61.9129 19.9915 60.9067 19.9915 60.112 19.499C59.3172 19.0065 58.8716 18.1069 58.9623 17.1782ZM61.4115 15.4C62.2984 15.4 62.8038 16.0561 62.8038 17.1781C62.8038 18.3046 62.2984 18.9601 61.4115 18.9601C60.5212 18.9601 60.0203 18.3091 60.0203 17.1781C60.0203 16.0561 60.5212 15.4 61.4115 15.4ZM70.3642 19.7684H69.3017L68.229 15.9563H68.148L67.0798 19.7684H66.0274L64.5968 14.5924H65.6357L66.5654 18.542H66.642L67.709 14.5924H68.6916L69.7586 18.542H69.8397L70.7649 14.5924H71.7891L70.3642 19.7684ZM73.9783 14.5923H72.9924V19.7683H74.0166V16.7403C73.9799 16.3958 74.0958 16.0525 74.334 15.8004C74.5722 15.5483 74.9089 15.4125 75.2559 15.4286C76.0134 15.4286 76.3758 15.8423 76.3758 16.6741V19.7683H77.4V16.4176C77.4751 15.9115 77.3154 15.3988 76.9659 15.0243C76.6165 14.6498 76.1152 14.4541 75.6037 14.4924C74.943 14.4389 74.3211 14.8092 74.0549 15.4146H73.9783V14.5923ZM82.6315 14.861C81.8375 15.3524 81.3913 16.2503 81.4802 17.1781C81.3896 18.1069 81.8354 19.0065 82.6302 19.4989C83.4249 19.9914 84.4311 19.9914 85.2259 19.4989C86.0207 19.0065 86.4664 18.1069 86.3758 17.1781C86.4647 16.2503 86.0186 15.3524 85.2245 14.861C84.4304 14.3696 83.4256 14.3696 82.6315 14.861ZM85.3217 17.1781C85.3217 16.0561 84.8163 15.4 83.9294 15.4C83.0391 15.4 82.5383 16.0561 82.5383 17.1781C82.5383 18.3091 83.0391 18.9601 83.9294 18.9601C84.8163 18.9601 85.3217 18.3046 85.3217 17.1781ZM89.3844 16.7595C88.1497 16.8358 87.4541 17.373 87.4541 18.3047C87.4558 18.7464 87.6449 19.1669 87.9745 19.462C88.3041 19.7571 88.7435 19.8994 89.1841 19.8537C89.8126 19.8827 90.4081 19.5723 90.743 19.0411H90.824V19.7685H91.81V16.2319C91.81 15.1386 91.0762 14.4926 89.775 14.4926C88.5977 14.4926 87.7591 15.0628 87.6545 15.9518H88.6461C88.7598 15.5859 89.156 15.3765 89.7277 15.3765C90.4278 15.3765 90.7903 15.6852 90.7903 16.2319V16.6787L89.3844 16.7595ZM90.7903 17.8623V17.4296L89.5229 17.5104C88.8081 17.5581 88.484 17.8006 88.484 18.2569C88.484 18.7227 88.8892 18.9938 89.4464 18.9938C89.7762 19.0271 90.1055 18.9255 90.3588 18.7122C90.6122 18.4989 90.7679 18.1922 90.7903 17.8623ZM95.3105 14.5065C93.9992 14.5065 93.1562 15.5426 93.1562 17.1782C93.1562 18.8176 93.9902 19.8537 95.3105 19.8537C95.9799 19.8783 96.6077 19.5304 96.9403 18.9506H97.0214V19.7684H98.0028V12.5718H96.9786V15.4146H96.902C96.5928 14.8299 95.9726 14.4761 95.3105 14.5065ZM94.2142 17.1782C94.2142 18.276 94.7331 18.9366 95.6009 18.9366C96.4642 18.9366 96.9977 18.2665 96.9977 17.1827C96.9977 16.1039 96.4586 15.4242 95.6009 15.4242C94.7387 15.4242 94.2142 16.0893 94.2142 17.1782ZM103.392 14.8611C102.598 15.3525 102.152 16.2504 102.241 17.1782C102.15 18.1069 102.596 19.0065 103.391 19.499C104.185 19.9915 105.191 19.9915 105.986 19.499C106.781 19.0065 107.227 18.1069 107.136 17.1782C107.225 16.2504 106.779 15.3525 105.985 14.8611C105.191 14.3697 104.186 14.3697 103.392 14.8611ZM106.082 17.1781C106.082 16.0561 105.577 15.4 104.69 15.4C103.8 15.4 103.299 16.0561 103.299 17.1781C103.299 18.3091 103.8 18.9601 104.69 18.9601C105.577 18.9601 106.082 18.3046 106.082 17.1781ZM109.496 14.5923H108.51V19.7683H109.534V16.7403C109.498 16.3958 109.614 16.0525 109.852 15.8004C110.09 15.5483 110.427 15.4125 110.774 15.4286C111.531 15.4286 111.894 15.8423 111.894 16.6741V19.7683H112.918V16.4176C112.993 15.9115 112.833 15.3988 112.484 15.0243C112.134 14.6498 111.633 14.4541 111.122 14.4924C110.461 14.4389 109.839 14.8092 109.573 15.4146H109.496V14.5923ZM118.706 13.3037V14.6159H119.83V15.4763H118.706V18.1379C118.706 18.68 118.93 18.9175 119.439 18.9175C119.57 18.917 119.7 18.9092 119.83 18.8939V19.7448C119.646 19.7776 119.46 19.795 119.273 19.797C118.134 19.797 117.68 19.3973 117.68 18.3994V15.4763H116.856V14.6159H117.68V13.3037H118.706ZM122.244 12.5718H121.229V19.7684H122.253V16.7454C122.222 16.3902 122.349 16.0392 122.601 15.7862C122.853 15.5332 123.204 15.404 123.56 15.4332C124.284 15.4332 124.67 15.8519 124.67 16.6786V19.7684H125.695V16.4266C125.763 15.9231 125.602 15.4157 125.257 15.0425C124.911 14.6694 124.416 14.4694 123.908 14.497C123.237 14.4427 122.604 14.8135 122.325 15.4242H122.244V12.5718ZM131.667 18.3708C131.38 19.3472 130.433 19.978 129.419 19.8683C128.727 19.8865 128.061 19.6004 127.6 19.086C127.138 18.5715 126.927 17.8806 127.021 17.1967C126.929 16.5108 127.14 15.8189 127.599 15.3C128.058 14.7812 128.72 14.4866 129.414 14.4925C130.858 14.4925 131.729 15.4764 131.729 17.1018V17.4582H128.065V17.5155C128.032 17.8996 128.164 18.2795 128.427 18.5618C128.69 18.8441 129.06 19.0026 129.447 18.9983C129.948 19.0583 130.436 18.8104 130.681 18.3708H131.667ZM130.686 16.7027H128.065C128.06 16.3458 128.2 16.0021 128.453 15.7497C128.706 15.4972 129.051 15.3574 129.408 15.3618C129.762 15.3538 130.102 15.4948 130.345 15.7501C130.588 16.0055 130.712 16.3514 130.686 16.7027Z" fill="white"/>
<path fill-rule="evenodd" clip-rule="evenodd" d="M37.6064 12.8975C37.7179 14.3507 37.2571 15.7901 36.3218 16.9099C35.4143 18.0356 34.0393 18.6839 32.5912 18.6691C32.4991 17.2577 32.9733 15.8677 33.9094 14.8052C34.8574 13.7284 36.1774 13.0472 37.6064 12.8975ZM42.1863 21.4363C40.5205 22.4577 39.4954 24.2589 39.4702 26.209C39.4726 28.4152 40.7974 30.4063 42.8348 31.2657C42.443 32.5352 41.8523 33.7349 41.0847 34.8205C40.0539 36.3583 38.9731 37.8608 37.2576 37.8886C36.4418 37.9073 35.891 37.6734 35.3172 37.4296C34.7186 37.1752 34.0948 36.9102 33.1187 36.9102C32.0836 36.9102 31.4319 37.1838 30.8033 37.4476C30.2602 37.6756 29.7343 37.8963 28.9932 37.9269C27.3595 37.9873 26.1109 36.2855 25.0426 34.7621C22.9074 31.6509 21.2447 25.9943 23.4737 22.1454C24.5205 20.2695 26.4776 19.0791 28.6291 19.0098C29.5557 18.9907 30.4448 19.3469 31.2243 19.6592C31.8205 19.898 32.3525 20.1111 32.7882 20.1111C33.1711 20.1111 33.6883 19.9064 34.2911 19.6678C35.2406 19.292 36.4023 18.8322 37.5862 18.9561C39.4258 19.0135 41.1306 19.9326 42.1863 21.4363Z" fill="white"/>
</g>
<defs>
<clipPath id="clip0_1_2748">
<rect width="160" height="54" fill="white" transform="translate(0.71875)"/>
</clipPath>
</defs>
</svg>
