<svg width="160" height="54" viewBox="0 0 160 54" fill="none" xmlns="http://www.w3.org/2000/svg">
<g clip-path="url(#clip0_26_73)">
<path d="M144 0H16C7.16344 0 0 7.16344 0 16V38C0 46.8366 7.16344 54 16 54H144C152.837 54 160 46.8366 160 38V16C160 7.16344 152.837 0 144 0Z" fill="#0F0F0F"/>
<path fill-rule="evenodd" clip-rule="evenodd" d="M96.2767 36.296C94.3925 36.296 93.0137 35.3666 92.855 33.9511L90.6624 33.951C90.8008 36.5328 92.9439 38.1661 96.118 38.1661C99.5104 38.1661 101.643 36.4935 101.643 33.823C101.643 31.7351 100.423 30.5587 97.4866 29.8661L95.9097 29.4799C94.0649 29.0253 93.3108 28.4315 93.3108 27.4224C93.3108 26.1562 94.4915 25.2862 96.217 25.2862C97.9425 25.2862 99.1232 26.146 99.2526 27.5705H101.415C101.345 25.1077 99.2718 23.416 96.2474 23.416C93.1915 23.416 91.0395 25.1077 91.0395 27.5705C91.0395 29.5597 92.2596 30.7855 94.8878 31.4186L96.7427 31.8642C98.5976 32.3189 99.381 32.9823 99.381 34.0902C99.381 35.3665 98.0821 36.296 96.2767 36.296ZM58.9599 34.07H53.5043L52.1942 37.9282H49.8834L55.0509 23.654H57.4517L62.6191 37.9282H60.2689L58.9599 34.07ZM54.0694 32.2897H58.3938L56.262 26.0282H56.2024L54.0694 32.2897ZM69.4243 38.0371C72.0434 38.0371 73.779 35.9593 73.779 32.7253C73.779 29.5002 72.0332 27.4123 69.3849 27.4123C68.0221 27.3685 66.7455 28.0754 66.0622 29.2522H66.0228V27.5212H63.9495V41.371H66.0914V36.2163H66.141C66.7952 37.4005 68.0704 38.1077 69.4243 38.0371ZM71.5774 32.7253C71.5774 30.6183 70.4856 29.2331 68.8198 29.2331C67.1833 29.2331 66.0825 30.6475 66.0825 32.7253C66.0825 34.8222 67.1833 36.2265 68.8198 36.2265C70.4856 36.2265 71.5774 34.8514 71.5774 32.7253ZM80.9094 38.0371C83.5286 38.0371 85.2642 35.9593 85.2642 32.7253C85.2642 29.5002 83.5185 27.4123 80.87 27.4123C79.5072 27.3685 78.2306 28.0754 77.5473 29.2522H77.508V27.5212H75.4347V41.371H77.5766V36.2163H77.6262C78.2804 37.4005 79.5556 38.1077 80.9094 38.0371ZM83.0626 32.7253C83.0626 30.6183 81.9708 29.2331 80.305 29.2331C78.6684 29.2331 77.5676 30.6475 77.5676 32.7253C77.5676 34.8222 78.6684 36.2265 80.305 36.2265C81.9708 36.2265 83.0626 34.8514 83.0626 32.7253ZM106.266 25.0583V27.5212H108.25V29.2128H106.266V34.9501C106.266 35.8414 106.663 36.2567 107.536 36.2567C107.771 36.2526 108.006 36.2361 108.24 36.2073V37.8889C107.848 37.9619 107.449 37.995 107.051 37.9876C104.938 37.9876 104.114 37.1963 104.114 35.1779V29.2128H102.597V27.5212H104.114V25.0583H106.266ZM114.349 27.3933C111.333 27.3933 109.4 29.4509 109.4 32.7253C109.4 36.0087 111.314 38.0573 114.349 38.0573C117.384 38.0573 119.299 36.0087 119.299 32.7253C119.299 29.4508 117.374 27.3933 114.349 27.3933ZM117.116 32.7253C117.116 30.4791 116.084 29.1534 114.349 29.1534C112.613 29.1534 111.582 30.4893 111.582 32.7253C111.582 34.9805 112.613 36.2961 114.349 36.2961C116.084 36.2961 117.116 34.9805 117.116 32.7253ZM123.108 27.5211H121.065V37.9281H123.207V31.7553C123.135 31.1308 123.341 30.5064 123.771 30.0461C124.2 29.5858 124.809 29.3355 125.439 29.361C125.764 29.3515 126.09 29.3951 126.401 29.49V27.4919C126.16 27.4381 125.914 27.4114 125.667 27.4122C124.49 27.3674 123.442 28.1522 123.157 29.2925H123.108V27.5211ZM136.277 34.8716C135.989 36.7608 134.144 38.0573 131.784 38.0573C128.748 38.0573 126.864 36.0289 126.864 32.7747C126.864 29.5104 128.758 27.3933 131.694 27.3933C134.581 27.3933 136.396 29.3712 136.396 32.5266V33.2585H129.026V33.3876C128.957 34.1624 129.225 34.9293 129.762 35.4933C130.3 36.0573 131.054 36.364 131.833 36.3354C132.873 36.4325 133.853 35.8372 134.243 34.8716H136.277ZM134.253 31.7656H129.036C129.034 31.0629 129.314 30.3887 129.813 29.8927C130.312 29.3967 130.989 29.1201 131.694 29.1242C132.393 29.1093 133.066 29.3858 133.552 29.8872C134.038 30.3886 134.292 31.0694 134.253 31.7656Z" fill="white"/>
<path fill-rule="evenodd" clip-rule="evenodd" d="M78.3134 12.5718H79.3377V19.7684H78.3134V12.5718ZM56.2278 13.8499C55.601 13.1897 54.7103 12.8447 53.801 12.9098H51.3169V19.7685H53.801C55.8495 19.7685 57.037 18.509 57.037 16.3178C57.1516 15.4158 56.8547 14.5101 56.2278 13.8499ZM53.6817 18.7985H52.385V13.879H53.6817C54.3281 13.8433 54.9567 14.0975 55.3956 14.5721C55.8344 15.0467 56.0377 15.6921 55.9497 16.3318C56.0446 16.9741 55.8442 17.6249 55.4043 18.1034C54.9643 18.5819 54.3315 18.8373 53.6817 18.7985ZM58.2436 17.1782C58.1546 16.2504 58.6006 15.3525 59.3947 14.8611C60.1887 14.3697 61.1935 14.3697 61.9875 14.8611C62.7816 15.3525 63.2276 16.2504 63.1386 17.1782C63.2293 18.1069 62.7837 19.0065 61.9889 19.499C61.1942 19.9915 60.188 19.9915 59.3933 19.499C58.5985 19.0065 58.1529 18.1069 58.2436 17.1782ZM60.6928 15.4C61.5797 15.4 62.0851 16.0561 62.0851 17.1781C62.0851 18.3046 61.5797 18.9601 60.6928 18.9601C59.8025 18.9601 59.3016 18.3091 59.3016 17.1781C59.3016 16.0561 59.8025 15.4 60.6928 15.4ZM69.6455 19.7684H68.583L67.5103 15.9563H67.4293L66.3611 19.7684H65.3087L63.8781 14.5924H64.917L65.8467 18.542H65.9233L66.9903 14.5924H67.9729L69.0399 18.542H69.121L70.0462 14.5924H71.0704L69.6455 19.7684ZM73.2596 14.5923H72.2737V19.7683H73.2979V16.7403C73.2612 16.3958 73.3771 16.0525 73.6153 15.8004C73.8535 15.5483 74.1902 15.4125 74.5372 15.4286C75.2947 15.4286 75.6571 15.8423 75.6571 16.6741V19.7683H76.6813V16.4176C76.7564 15.9115 76.5967 15.3988 76.2472 15.0243C75.8978 14.6498 75.3965 14.4541 74.885 14.4924C74.2243 14.4389 73.6024 14.8092 73.3362 15.4146H73.2596V14.5923ZM81.9128 14.861C81.1187 15.3524 80.6726 16.2503 80.7615 17.1781C80.6709 18.1069 81.1167 19.0065 81.9115 19.4989C82.7062 19.9914 83.7124 19.9914 84.5072 19.4989C85.302 19.0065 85.7477 18.1069 85.6571 17.1781C85.746 16.2503 85.2999 15.3524 84.5058 14.861C83.7117 14.3696 82.7069 14.3696 81.9128 14.861ZM84.603 17.1781C84.603 16.0561 84.0976 15.4 83.2107 15.4C82.3204 15.4 81.8196 16.0561 81.8196 17.1781C81.8196 18.3091 82.3204 18.9601 83.2107 18.9601C84.0976 18.9601 84.603 18.3046 84.603 17.1781ZM88.6657 16.7595C87.431 16.8358 86.7354 17.373 86.7354 18.3047C86.7371 18.7464 86.9262 19.1669 87.2558 19.462C87.5854 19.7571 88.0248 19.8994 88.4654 19.8537C89.0939 19.8827 89.6894 19.5723 90.0243 19.0411H90.1053V19.7685H91.0913V16.2319C91.0913 15.1386 90.3575 14.4926 89.0563 14.4926C87.879 14.4926 87.0404 15.0628 86.9358 15.9518H87.9274C88.0411 15.5859 88.4373 15.3765 89.009 15.3765C89.7091 15.3765 90.0716 15.6852 90.0716 16.2319V16.6787L88.6657 16.7595ZM90.0716 17.8623V17.4296L88.8042 17.5104C88.0894 17.5581 87.7653 17.8006 87.7653 18.2569C87.7653 18.7227 88.1705 18.9938 88.7277 18.9938C89.0575 19.0271 89.3868 18.9255 89.6401 18.7122C89.8935 18.4989 90.0492 18.1922 90.0716 17.8623ZM94.5918 14.5065C93.2805 14.5065 92.4375 15.5426 92.4375 17.1782C92.4375 18.8176 93.2715 19.8537 94.5918 19.8537C95.2612 19.8783 95.889 19.5304 96.2216 18.9506H96.3027V19.7684H97.2841V12.5718H96.2599V15.4146H96.1833C95.8741 14.8299 95.2539 14.4761 94.5918 14.5065ZM93.4955 17.1782C93.4955 18.276 94.0144 18.9366 94.8822 18.9366C95.7455 18.9366 96.279 18.2665 96.279 17.1827C96.279 16.1039 95.7399 15.4242 94.8822 15.4242C94.02 15.4242 93.4955 16.0893 93.4955 17.1782ZM102.673 14.8611C101.879 15.3525 101.433 16.2504 101.522 17.1782C101.431 18.1069 101.877 19.0065 102.672 19.499C103.466 19.9915 104.472 19.9915 105.267 19.499C106.062 19.0065 106.508 18.1069 106.417 17.1782C106.506 16.2504 106.06 15.3525 105.266 14.8611C104.472 14.3697 103.467 14.3697 102.673 14.8611ZM105.363 17.1781C105.363 16.0561 104.858 15.4 103.971 15.4C103.081 15.4 102.58 16.0561 102.58 17.1781C102.58 18.3091 103.081 18.9601 103.971 18.9601C104.858 18.9601 105.363 18.3046 105.363 17.1781ZM108.777 14.5923H107.791V19.7683H108.815V16.7403C108.779 16.3958 108.895 16.0525 109.133 15.8004C109.371 15.5483 109.708 15.4125 110.055 15.4286C110.812 15.4286 111.175 15.8423 111.175 16.6741V19.7683H112.199V16.4176C112.274 15.9115 112.114 15.3988 111.765 15.0243C111.415 14.6498 110.914 14.4541 110.403 14.4924C109.742 14.4389 109.12 14.8092 108.854 15.4146H108.777V14.5923ZM117.987 13.3037V14.6159H119.111V15.4763H117.987V18.1379C117.987 18.68 118.211 18.9175 118.72 18.9175C118.851 18.917 118.981 18.9092 119.111 18.8939V19.7448C118.927 19.7776 118.741 19.795 118.554 19.797C117.415 19.797 116.961 19.3973 116.961 18.3994V15.4763H116.137V14.6159H116.961V13.3037H117.987ZM121.525 12.5718H120.51V19.7684H121.534V16.7454C121.503 16.3902 121.63 16.0392 121.882 15.7862C122.134 15.5332 122.485 15.404 122.841 15.4332C123.565 15.4332 123.951 15.8519 123.951 16.6786V19.7684H124.976V16.4266C125.044 15.9231 124.883 15.4157 124.538 15.0425C124.192 14.6694 123.697 14.4694 123.189 14.497C122.518 14.4427 121.885 14.8135 121.606 15.4242H121.525V12.5718ZM130.948 18.3708C130.661 19.3472 129.714 19.978 128.7 19.8683C128.008 19.8865 127.342 19.6004 126.881 19.086C126.419 18.5715 126.208 17.8806 126.302 17.1967C126.21 16.5108 126.421 15.8189 126.88 15.3C127.339 14.7812 128.001 14.4866 128.695 14.4925C130.139 14.4925 131.01 15.4764 131.01 17.1018V17.4582H127.346V17.5155C127.313 17.8996 127.445 18.2795 127.708 18.5618C127.971 18.8441 128.341 19.0026 128.728 18.9983C129.229 19.0583 129.717 18.8104 129.962 18.3708H130.948ZM129.967 16.7027H127.346C127.341 16.3458 127.481 16.0021 127.734 15.7497C127.987 15.4972 128.332 15.3574 128.689 15.3618C129.043 15.3538 129.383 15.4948 129.626 15.7501C129.869 16.0055 129.993 16.3514 129.967 16.7027Z" fill="white"/>
<path fill-rule="evenodd" clip-rule="evenodd" d="M36.8877 12.8975C36.9992 14.3507 36.5384 15.7901 35.6031 16.9099C34.6956 18.0356 33.3206 18.6839 31.8725 18.6691C31.7804 17.2577 32.2546 15.8677 33.1907 14.8052C34.1387 13.7284 35.4587 13.0472 36.8877 12.8975ZM41.4676 21.4363C39.8018 22.4577 38.7767 24.2589 38.7515 26.209C38.7539 28.4152 40.0787 30.4063 42.1161 31.2657C41.7243 32.5352 41.1336 33.7349 40.366 34.8205C39.3352 36.3583 38.2544 37.8608 36.5389 37.8886C35.7231 37.9073 35.1723 37.6734 34.5985 37.4296C33.9999 37.1752 33.3761 36.9102 32.4 36.9102C31.3649 36.9102 30.7132 37.1838 30.0846 37.4476C29.5415 37.6756 29.0156 37.8963 28.2745 37.9269C26.6408 37.9873 25.3922 36.2855 24.3239 34.7621C22.1887 31.6509 20.526 25.9943 22.755 22.1454C23.8018 20.2695 25.7589 19.0791 27.9104 19.0098C28.837 18.9907 29.7261 19.3469 30.5056 19.6592C31.1018 19.898 31.6338 20.1111 32.0695 20.1111C32.4524 20.1111 32.9696 19.9064 33.5724 19.6678C34.5219 19.292 35.6836 18.8322 36.8675 18.9561C38.7071 19.0135 40.4119 19.9326 41.4676 21.4363Z" fill="white"/>
</g>
<defs>
<clipPath id="clip0_26_73">
<rect width="160" height="54" fill="white"/>
</clipPath>
</defs>
</svg>
