<svg width="160" height="54" viewBox="0 0 160 54" fill="none" xmlns="http://www.w3.org/2000/svg">
<g clip-path="url(#clip0_26_57)">
<path d="M154.074 0H5.92593C2.65313 0 0 3.02208 0 6.75V47.25C0 50.9779 2.65313 54 5.92593 54H154.074C157.347 54 160 50.9779 160 47.25V6.75C160 3.02208 157.347 0 154.074 0Z" fill="#0F0F0F"/>
<path d="M60.0433 16.6284C60.0433 17.5302 59.7749 18.2494 59.2381 18.7754C58.637 19.4088 57.8533 19.7309 56.8764 19.7309C55.8995 19.7309 55.1481 19.4088 54.504 18.7647C53.8599 18.1206 53.5378 17.3155 53.5378 16.3708C53.5378 15.4261 53.8599 14.621 54.504 13.9769C55.1481 13.3328 55.9425 13 56.8764 13C57.3488 13 57.7996 13.0859 58.2183 13.2469C58.637 13.4187 58.9805 13.6548 59.2489 13.9554L58.6584 14.5458C58.4652 14.3097 58.2076 14.1164 57.8855 13.9876C57.5742 13.8481 57.2307 13.7837 56.8764 13.7837C56.1787 13.7837 55.5775 14.0306 55.0944 14.5136C54.6113 15.0075 54.3752 15.6193 54.3752 16.3601C54.3752 17.1008 54.6113 17.7127 55.0944 18.2065C55.5775 18.6896 56.1679 18.9365 56.8764 18.9365C57.5205 18.9365 58.0466 18.754 58.476 18.3997C58.9054 18.0455 59.1523 17.5409 59.2167 16.9183H56.8764V16.1454H60.0003C60.0325 16.3171 60.0433 16.4781 60.0433 16.6284Z" fill="white" stroke="white" stroke-width="0.214701" stroke-miterlimit="10"/>
<path d="M64.9921 13.1504V13.9448H62.0615V15.9845H64.7023V16.7574H62.0615V18.797H64.9921V19.5914H61.2349V13.1504H64.9921Z" fill="white" stroke="white" stroke-width="0.214701" stroke-miterlimit="10"/>
<path d="M68.481 13.9448V19.5914H67.6544V13.9448H65.8509V13.1504H70.2738V13.9448H68.4703H68.481Z" fill="white" stroke="white" stroke-width="0.214701" stroke-miterlimit="10"/>
<path d="M74.3101 19.5914H73.4835V13.1504H74.3101V19.5914Z" fill="white" stroke="white" stroke-width="0.214701" stroke-miterlimit="10"/>
<path d="M77.9815 13.9448V19.5914H77.1549V13.9448H75.3514V13.1504H79.7743V13.9448H77.9708H77.9815Z" fill="white" stroke="white" stroke-width="0.214701" stroke-miterlimit="10"/>
<path d="M89.103 16.3708C89.103 17.3262 88.7809 18.1206 88.1476 18.7647C87.5035 19.4088 86.7198 19.7309 85.7859 19.7309C84.8519 19.7309 84.0683 19.4088 83.4242 18.7647C82.7908 18.1206 82.4688 17.3262 82.4688 16.3708C82.4688 15.4154 82.7908 14.621 83.4242 13.9769C84.0575 13.3328 84.8412 13 85.7859 13C86.7306 13 87.5035 13.3221 88.1476 13.9769C88.7809 14.621 89.103 15.4154 89.103 16.3601V16.3708ZM83.3276 16.3708C83.3276 17.1115 83.5637 17.7341 84.0253 18.2172C84.4977 18.7003 85.0881 18.9472 85.7859 18.9472C86.4837 18.9472 87.0741 18.7003 87.5357 18.2172C88.008 17.7341 88.2442 17.1222 88.2442 16.3708C88.2442 15.6193 88.008 15.0074 87.5357 14.5244C87.0633 14.0413 86.4837 13.7944 85.7859 13.7944C85.0881 13.7944 84.4977 14.0413 84.0253 14.5244C83.553 15.0074 83.3276 15.6301 83.3276 16.3708Z" fill="white" stroke="white" stroke-width="0.214701" stroke-miterlimit="10"/>
<path d="M91.089 19.5914H90.2624V13.1504H91.2715L94.4061 18.1637H94.4383L94.4061 16.9184V13.1504H95.2327V19.5914H94.3739L91.0997 14.342H91.0675L91.0997 15.5873V19.6022L91.089 19.5914Z" fill="white" stroke="white" stroke-width="0.214701" stroke-miterlimit="10"/>
<path d="M81.2863 28.9844C78.7635 28.9844 76.7024 30.906 76.7024 33.5468C76.7024 36.1876 78.7635 38.1092 81.2863 38.1092C83.809 38.1092 85.8701 36.1769 85.8701 33.5468C85.8701 30.9167 83.809 28.9844 81.2863 28.9844ZM81.2863 36.3164C79.9014 36.3164 78.7099 35.1785 78.7099 33.5468C78.7099 31.9151 79.9014 30.7772 81.2863 30.7772C82.6711 30.7772 83.8627 31.9043 83.8627 33.5468C83.8627 35.1893 82.6711 36.3164 81.2863 36.3164ZM71.292 28.9844C68.7692 28.9844 66.7081 30.906 66.7081 33.5468C66.7081 36.1876 68.7692 38.1092 71.292 38.1092C73.8147 38.1092 75.8758 36.1769 75.8758 33.5468C75.8758 30.9167 73.8147 28.9844 71.292 28.9844ZM71.292 36.3164C69.9071 36.3164 68.7155 35.1785 68.7155 33.5468C68.7155 31.9151 69.9071 30.7772 71.292 30.7772C72.6768 30.7772 73.8684 31.9043 73.8684 33.5468C73.8684 35.1893 72.6768 36.3164 71.292 36.3164ZM59.3975 30.38V32.3123H64.0351C63.8955 33.3965 63.5305 34.2016 62.983 34.7491C62.3067 35.4254 61.2547 36.1661 59.4083 36.1661C56.5528 36.1661 54.3199 33.8689 54.3199 31.0133C54.3199 28.1578 56.5528 25.8605 59.4083 25.8605C60.9434 25.8605 62.0706 26.4617 62.8972 27.2453L64.2605 25.882C63.1011 24.7763 61.566 23.9282 59.3975 23.9282C55.49 23.9282 52.2051 27.1058 52.2051 31.0241C52.2051 34.9424 55.49 38.1199 59.3975 38.1199C61.5123 38.1199 63.1011 37.4329 64.3464 36.1339C65.6239 34.8565 66.0211 33.053 66.0211 31.6038C66.0211 31.1529 65.9889 30.7342 65.9137 30.3907H59.3975V30.38ZM108.038 31.8829C107.662 30.863 106.503 28.9737 104.13 28.9737C101.758 28.9737 99.8257 30.8201 99.8257 33.5361C99.8257 36.091 101.758 38.0985 104.356 38.0985C106.449 38.0985 107.662 36.821 108.156 36.0803L106.599 35.039C106.084 35.8012 105.376 36.3057 104.356 36.3057C103.336 36.3057 102.606 35.8441 102.144 34.9209L108.253 32.3982L108.049 31.8829H108.038ZM101.812 33.4072C101.758 31.6467 103.175 30.745 104.195 30.745C104.989 30.745 105.666 31.1422 105.891 31.7111L101.812 33.4072ZM96.852 37.8301H98.8595V24.4113H96.852V37.8301ZM93.5671 29.9935H93.5027C93.0518 29.4568 92.193 28.9737 91.0981 28.9737C88.8115 28.9737 86.7182 30.9811 86.7182 33.5575C86.7182 36.1339 88.8115 38.1092 91.0981 38.1092C92.1823 38.1092 93.0518 37.6261 93.5027 37.0679H93.5671V37.7227C93.5671 39.4725 92.6332 40.4065 91.1303 40.4065C89.9065 40.4065 89.1443 39.5262 88.833 38.7855L87.0832 39.5155C87.5877 40.7285 88.9189 42.21 91.1303 42.21C93.4812 42.21 95.4672 40.8251 95.4672 37.4544V29.2528H93.5671V29.9935ZM91.2698 36.3057C89.885 36.3057 88.7256 35.1463 88.7256 33.5575C88.7256 31.9688 89.885 30.7772 91.2698 30.7772C92.6547 30.7772 93.7067 31.958 93.7067 33.5575C93.7067 35.1571 92.6332 36.3057 91.2698 36.3057ZM117.442 24.4113H112.643V37.8301H114.651V32.7417H117.453C119.675 32.7417 121.854 31.1314 121.854 28.5765C121.854 26.0216 119.675 24.4113 117.453 24.4113H117.442ZM117.496 30.8845H114.651V26.2792H117.496C118.998 26.2792 119.846 27.5245 119.846 28.5765C119.846 29.6285 118.998 30.8738 117.496 30.8738V30.8845ZM129.873 28.9522C128.424 28.9522 126.921 29.5963 126.298 31.0026L128.08 31.7433C128.456 31.0026 129.164 30.7557 129.905 30.7557C130.936 30.7557 131.999 31.3783 132.009 32.484V32.6236C131.644 32.4196 130.871 32.1083 129.916 32.1083C127.994 32.1083 126.051 33.1603 126.051 35.1249C126.051 36.9176 127.619 38.077 129.379 38.077C130.721 38.077 131.473 37.4758 131.934 36.7673H131.999V37.7979H133.931V32.6558C133.931 30.2726 132.149 28.9415 129.852 28.9415L129.873 28.9522ZM129.626 36.3057C128.971 36.3057 128.059 35.9729 128.059 35.1678C128.059 34.1372 129.197 33.74 130.184 33.74C131.065 33.74 131.483 33.9333 132.009 34.1909C131.859 35.4362 130.785 36.3164 129.626 36.3164V36.3057ZM140.984 29.2421L138.686 35.0604H138.622L136.239 29.2421H134.081L137.656 37.3792L135.616 41.8987H137.71L143.217 29.2421H140.994H140.984ZM122.938 37.8301H124.946V24.4113H122.938V37.8301Z" fill="white"/>
<path d="M32.5402 26.1826L21.1074 38.3132C21.4616 39.6336 22.6639 40.5998 24.0917 40.5998C24.6607 40.5998 25.1974 40.4495 25.659 40.1704L25.6912 40.1489L38.5518 32.731L32.5294 26.1719L32.5402 26.1826Z" fill="#EA4335"/>
<path d="M44.1018 24.1214H44.0911L38.5411 20.8901L32.2825 26.4616L38.5625 32.7416L44.0911 29.5533C45.0572 29.0273 45.7121 28.0074 45.7121 26.8373C45.7121 25.6672 45.0679 24.6474 44.1018 24.1321V24.1214Z" fill="#FBBC04"/>
<path d="M21.1073 15.2974C21.0429 15.5551 21 15.8127 21 16.0918V37.5189C21 37.798 21.0322 38.0557 21.1073 38.3133L32.9266 26.494L21.1073 15.2974Z" fill="#4285F4"/>
<path d="M32.626 26.8052L38.541 20.8902L25.6912 13.4401C25.2296 13.161 24.6821 13 24.0917 13C22.6639 13 21.4616 13.9769 21.1074 15.2866L32.626 26.7945V26.8052Z" fill="#34A853"/>
</g>
<defs>
<clipPath id="clip0_26_57">
<rect width="160" height="54" fill="white"/>
</clipPath>
</defs>
</svg>
