<svg width="161" height="54" viewBox="0 0 161 54" fill="none" xmlns="http://www.w3.org/2000/svg">
<g clip-path="url(#clip0_1_2732)">
<path d="M154.793 0H6.64468C3.37188 0 0.71875 3.02208 0.71875 6.75V47.25C0.71875 50.9779 3.37188 54 6.64468 54H154.793C158.066 54 160.719 50.9779 160.719 47.25V6.75C160.719 3.02208 158.066 0 154.793 0Z" fill="#343434"/>
<path d="M60.762 16.6284C60.762 17.5302 60.4936 18.2494 59.9568 18.7754C59.3557 19.4088 58.572 19.7309 57.5951 19.7309C56.6182 19.7309 55.8668 19.4088 55.2227 18.7647C54.5786 18.1206 54.2565 17.3155 54.2565 16.3708C54.2565 15.4261 54.5786 14.621 55.2227 13.9769C55.8668 13.3328 56.6612 13 57.5951 13C58.0675 13 58.5183 13.0859 58.937 13.2469C59.3557 13.4187 59.6992 13.6548 59.9676 13.9554L59.3771 14.5458C59.1839 14.3097 58.9263 14.1164 58.6042 13.9876C58.2929 13.8481 57.9494 13.7837 57.5951 13.7837C56.8974 13.7837 56.2962 14.0306 55.8131 14.5136C55.33 15.0075 55.0939 15.6193 55.0939 16.3601C55.0939 17.1008 55.33 17.7127 55.8131 18.2065C56.2962 18.6896 56.8866 18.9365 57.5951 18.9365C58.2392 18.9365 58.7653 18.754 59.1947 18.3997C59.6241 18.0455 59.871 17.5409 59.9354 16.9183H57.5951V16.1454H60.719C60.7512 16.3171 60.762 16.4781 60.762 16.6284Z" fill="white" stroke="white" stroke-width="0.214701" stroke-miterlimit="10"/>
<path d="M65.7108 13.1504V13.9448H62.7802V15.9845H65.421V16.7574H62.7802V18.797H65.7108V19.5914H61.9536V13.1504H65.7108Z" fill="white" stroke="white" stroke-width="0.214701" stroke-miterlimit="10"/>
<path d="M69.1997 13.9448V19.5914H68.3731V13.9448H66.5696V13.1504H70.9925V13.9448H69.189H69.1997Z" fill="white" stroke="white" stroke-width="0.214701" stroke-miterlimit="10"/>
<path d="M75.0288 19.5914H74.2022V13.1504H75.0288V19.5914Z" fill="white" stroke="white" stroke-width="0.214701" stroke-miterlimit="10"/>
<path d="M78.7003 13.9448V19.5914H77.8737V13.9448H76.0702V13.1504H80.4931V13.9448H78.6896H78.7003Z" fill="white" stroke="white" stroke-width="0.214701" stroke-miterlimit="10"/>
<path d="M89.8218 16.3708C89.8218 17.3262 89.4997 18.1206 88.8664 18.7647C88.2223 19.4088 87.4386 19.7309 86.5047 19.7309C85.5707 19.7309 84.7871 19.4088 84.143 18.7647C83.5096 18.1206 83.1876 17.3262 83.1876 16.3708C83.1876 15.4154 83.5096 14.621 84.143 13.9769C84.7763 13.3328 85.56 13 86.5047 13C87.4494 13 88.2223 13.3221 88.8664 13.9769C89.4997 14.621 89.8218 15.4154 89.8218 16.3601V16.3708ZM84.0464 16.3708C84.0464 17.1115 84.2825 17.7341 84.7441 18.2172C85.2165 18.7003 85.8069 18.9472 86.5047 18.9472C87.2025 18.9472 87.7929 18.7003 88.2545 18.2172C88.7268 17.7341 88.963 17.1222 88.963 16.3708C88.963 15.6193 88.7268 15.0074 88.2545 14.5244C87.7821 14.0413 87.2025 13.7944 86.5047 13.7944C85.8069 13.7944 85.2165 14.0413 84.7441 14.5244C84.2718 15.0074 84.0464 15.6301 84.0464 16.3708Z" fill="white" stroke="white" stroke-width="0.214701" stroke-miterlimit="10"/>
<path d="M91.8077 19.5914H90.9811V13.1504H91.9902L95.1248 18.1637H95.157L95.1248 16.9184V13.1504H95.9514V19.5914H95.0926L91.8184 14.342H91.7862L91.8184 15.5873V19.6022L91.8077 19.5914Z" fill="white" stroke="white" stroke-width="0.214701" stroke-miterlimit="10"/>
<path d="M82.0051 28.9844C79.4823 28.9844 77.4212 30.906 77.4212 33.5468C77.4212 36.1876 79.4823 38.1092 82.0051 38.1092C84.5278 38.1092 86.5889 36.1769 86.5889 33.5468C86.5889 30.9167 84.5278 28.9844 82.0051 28.9844ZM82.0051 36.3164C80.6202 36.3164 79.4287 35.1785 79.4287 33.5468C79.4287 31.9151 80.6202 30.7772 82.0051 30.7772C83.3899 30.7772 84.5815 31.9043 84.5815 33.5468C84.5815 35.1893 83.3899 36.3164 82.0051 36.3164ZM72.0108 28.9844C69.488 28.9844 67.4269 30.906 67.4269 33.5468C67.4269 36.1876 69.488 38.1092 72.0108 38.1092C74.5335 38.1092 76.5946 36.1769 76.5946 33.5468C76.5946 30.9167 74.5335 28.9844 72.0108 28.9844ZM72.0108 36.3164C70.6259 36.3164 69.4343 35.1785 69.4343 33.5468C69.4343 31.9151 70.6259 30.7772 72.0108 30.7772C73.3956 30.7772 74.5872 31.9043 74.5872 33.5468C74.5872 35.1893 73.3956 36.3164 72.0108 36.3164ZM60.1163 30.38V32.3123H64.7539C64.6143 33.3965 64.2493 34.2016 63.7018 34.7491C63.0255 35.4254 61.9735 36.1661 60.1271 36.1661C57.2716 36.1661 55.0387 33.8689 55.0387 31.0133C55.0387 28.1578 57.2716 25.8605 60.1271 25.8605C61.6622 25.8605 62.7894 26.4617 63.616 27.2453L64.9793 25.882C63.8199 24.7763 62.2848 23.9282 60.1163 23.9282C56.2088 23.9282 52.9239 27.1058 52.9239 31.0241C52.9239 34.9424 56.2088 38.1199 60.1163 38.1199C62.2311 38.1199 63.8199 37.4329 65.0652 36.1339C66.3427 34.8565 66.7399 33.053 66.7399 31.6038C66.7399 31.1529 66.7077 30.7342 66.6325 30.3907H60.1163V30.38ZM108.757 31.8829C108.381 30.863 107.222 28.9737 104.849 28.9737C102.477 28.9737 100.544 30.8201 100.544 33.5361C100.544 36.091 102.477 38.0985 105.075 38.0985C107.168 38.0985 108.381 36.821 108.875 36.0803L107.318 35.039C106.803 35.8012 106.095 36.3057 105.075 36.3057C104.055 36.3057 103.325 35.8441 102.863 34.9209L108.972 32.3982L108.768 31.8829H108.757ZM102.531 33.4072C102.477 31.6467 103.894 30.745 104.914 30.745C105.708 30.745 106.385 31.1422 106.61 31.7111L102.531 33.4072ZM97.5708 37.8301H99.5783V24.4113H97.5708V37.8301ZM94.2859 29.9935H94.2215C93.7706 29.4568 92.9118 28.9737 91.8169 28.9737C89.5303 28.9737 87.437 30.9811 87.437 33.5575C87.437 36.1339 89.5303 38.1092 91.8169 38.1092C92.9011 38.1092 93.7706 37.6261 94.2215 37.0679H94.2859V37.7227C94.2859 39.4725 93.352 40.4065 91.8491 40.4065C90.6253 40.4065 89.8631 39.5262 89.5518 38.7855L87.802 39.5155C88.3065 40.7285 89.6377 42.21 91.8491 42.21C94.2 42.21 96.186 40.8251 96.186 37.4544V29.2528H94.2859V29.9935ZM91.9886 36.3057C90.6038 36.3057 89.4444 35.1463 89.4444 33.5575C89.4444 31.9688 90.6038 30.7772 91.9886 30.7772C93.3735 30.7772 94.4255 31.958 94.4255 33.5575C94.4255 35.1571 93.352 36.3057 91.9886 36.3057ZM118.161 24.4113H113.362V37.8301H115.37V32.7417H118.172C120.394 32.7417 122.573 31.1314 122.573 28.5765C122.573 26.0216 120.394 24.4113 118.172 24.4113H118.161ZM118.215 30.8845H115.37V26.2792H118.215C119.717 26.2792 120.565 27.5245 120.565 28.5765C120.565 29.6285 119.717 30.8738 118.215 30.8738V30.8845ZM130.592 28.9522C129.143 28.9522 127.64 29.5963 127.017 31.0026L128.799 31.7433C129.175 31.0026 129.883 30.7557 130.624 30.7557C131.655 30.7557 132.718 31.3783 132.728 32.484V32.6236C132.363 32.4196 131.59 32.1083 130.635 32.1083C128.713 32.1083 126.77 33.1603 126.77 35.1249C126.77 36.9176 128.338 38.077 130.098 38.077C131.44 38.077 132.192 37.4758 132.653 36.7673H132.718V37.7979H134.65V32.6558C134.65 30.2726 132.868 28.9415 130.571 28.9415L130.592 28.9522ZM130.345 36.3057C129.69 36.3057 128.778 35.9729 128.778 35.1678C128.778 34.1372 129.916 33.74 130.903 33.74C131.784 33.74 132.202 33.9333 132.728 34.1909C132.578 35.4362 131.504 36.3164 130.345 36.3164V36.3057ZM141.703 29.2421L139.405 35.0604H139.341L136.958 29.2421H134.8L138.375 37.3792L136.335 41.8987H138.429L143.936 29.2421H141.713H141.703ZM123.657 37.8301H125.665V24.4113H123.657V37.8301Z" fill="white"/>
<path d="M33.2589 26.1826L21.8261 38.3132C22.1803 39.6336 23.3826 40.5998 24.8104 40.5998C25.3794 40.5998 25.9161 40.4495 26.3777 40.1704L26.4099 40.1489L39.2705 32.731L33.2481 26.1719L33.2589 26.1826Z" fill="#EA4335"/>
<path d="M44.8205 24.1214H44.8098L39.2598 20.8901L33.0013 26.4616L39.2812 32.7416L44.8098 29.5533C45.7759 29.0273 46.4309 28.0074 46.4309 26.8373C46.4309 25.6672 45.7866 24.6474 44.8205 24.1321V24.1214Z" fill="#FBBC04"/>
<path d="M21.826 15.2974C21.7616 15.5551 21.7188 15.8127 21.7188 16.0918V37.5189C21.7188 37.798 21.7509 38.0557 21.826 38.3133L33.6454 26.494L21.826 15.2974Z" fill="#4285F4"/>
<path d="M33.3447 26.8052L39.2597 20.8902L26.4099 13.4401C25.9483 13.161 25.4008 13 24.8104 13C23.3826 13 22.1803 13.9769 21.8261 15.2866L33.3447 26.7945V26.8052Z" fill="#34A853"/>
</g>
<defs>
<clipPath id="clip0_1_2732">
<rect width="160" height="54" fill="white" transform="translate(0.71875)"/>
</clipPath>
</defs>
</svg>
