<svg width="48" height="48" viewBox="0 0 48 48" fill="none" xmlns="http://www.w3.org/2000/svg">
<g clip-path="url(#clip0_1_2071)">
<g clip-path="url(#clip1_1_2071)">
<path d="M32 0H16C7.16344 0 0 7.16344 0 16V32C0 40.8366 7.16344 48 16 48H32C40.8366 48 48 40.8366 48 32V16C48 7.16344 40.8366 0 32 0Z" fill="#2D374B"/>
<path d="M28.0948 22.6204L30.5184 18.5082L37.0506 28.6824L37.0536 30.635L37.0324 17.1991C37.017 16.8706 36.8424 16.5702 36.5642 16.393L24.8038 9.62817C24.5288 9.49291 24.1798 9.49447 23.9052 9.63247C23.8682 9.65095 23.8332 9.67121 23.8 9.69329L23.759 9.71905L12.3436 16.3341L12.2994 16.3542C12.2424 16.3804 12.1848 16.4137 12.1308 16.4524C11.9143 16.6076 11.7706 16.8371 11.7241 17.0946C11.7171 17.1336 11.712 17.1733 11.7096 17.2135L11.7275 28.1624L17.812 18.7318C18.5781 17.4813 20.247 17.0785 21.7964 17.1004L23.6148 17.1484L12.9002 34.3316L14.1633 35.0588L25.0062 17.1659L29.7988 17.1485L18.9839 35.4928L23.4908 38.0852L24.0292 38.3948C24.257 38.4874 24.5256 38.492 24.7552 38.409L36.681 31.498L34.401 32.8192L28.0948 22.6204ZM29.0194 35.9378L24.4674 28.7934L27.2462 24.0782L33.2244 33.501L29.0194 35.9378Z" fill="#2D374B"/>
<path d="M24.4674 28.7933L29.0192 35.9377L33.2244 33.5007L27.246 24.0781L24.4674 28.7933Z" fill="#28A0F0"/>
<path d="M37.0536 30.635L37.0506 28.6824L30.5182 18.5083L28.0948 22.6206L34.4008 32.8192L36.6808 31.498C36.9044 31.3162 37.0398 31.0498 37.054 30.7622L37.0536 30.635Z" fill="#28A0F0"/>
<path d="M9.68054 32.4758L12.9003 34.331L23.6148 17.1479L21.7964 17.1C20.247 17.0781 18.5779 17.4809 17.8119 18.7313L11.7275 28.162L9.68054 31.307V32.4758Z" fill="white"/>
<path d="M29.7988 17.1484L25.006 17.1658L14.1632 35.0586L17.9531 37.2408L18.9838 35.4928L29.7988 17.1484Z" fill="white"/>
<path d="M39.0732 17.1236C39.033 16.1213 38.4904 15.2038 37.6404 14.6696L25.7256 7.81778C24.8848 7.3944 23.8344 7.39384 22.992 7.8175C22.8924 7.86774 11.4053 14.5298 11.4053 14.5298C11.2464 14.606 11.0932 14.6969 10.9492 14.8C10.1904 15.3438 9.7278 16.189 9.6803 17.1174V31.3074L11.7272 28.1624L11.7094 17.2133C11.7117 17.1733 11.7168 17.1339 11.7239 17.095C11.7702 16.8374 11.914 16.6076 12.1306 16.4523C12.1846 16.4136 23.868 9.65082 23.905 9.63226C24.1796 9.49436 24.5288 9.49272 24.8036 9.62798L36.5642 16.3927C36.8424 16.5699 37.0168 16.8703 37.0322 17.1987V30.7618C37.018 31.0494 36.9044 31.316 36.6806 31.4976L34.4006 32.8188L33.2242 33.5006L29.0192 35.9376L24.755 38.4088C24.5254 38.4918 24.2568 38.487 24.029 38.3944L18.9836 35.4926L17.953 37.2406L22.487 39.851C22.637 39.9364 22.7706 40.012 22.8802 40.0734C23.05 40.1686 23.1656 40.2324 23.2064 40.2522C23.5288 40.4088 23.9924 40.4998 24.4102 40.4998C24.7934 40.4998 25.1668 40.4294 25.5204 40.291L37.9064 33.118C38.6172 32.5672 39.0354 31.7364 39.0732 30.8366V17.1236Z" fill="#96BEDC"/>
</g>
</g>
<defs>
<clipPath id="clip0_1_2071">
<rect width="48" height="48" rx="24" fill="white"/>
</clipPath>
<clipPath id="clip1_1_2071">
<rect width="48" height="48" fill="white"/>
</clipPath>
</defs>
</svg>
