<svg width="48" height="48" viewBox="0 0 48 48" fill="none" xmlns="http://www.w3.org/2000/svg">
<g clip-path="url(#clip0_1_2083)">
<g clip-path="url(#clip1_1_2083)">
<path d="M32 0H16C7.16344 0 0 7.16344 0 16V32C0 40.8366 7.16344 48 16 48H32C40.8366 48 48 40.8366 48 32V16C48 7.16344 40.8366 0 32 0Z" fill="#151424"/>
<path fill-rule="evenodd" clip-rule="evenodd" d="M20.7646 11.0181C22.1214 8.32732 25.8786 8.3273 27.2354 11.0181L37.0892 30.56C38.3408 33.042 36.5814 36 33.8538 36H14.1462C11.4185 36 9.65926 33.042 10.9108 30.56L20.7646 11.0181ZM25.6178 11.8736C24.9394 10.5282 23.0606 10.5282 22.3822 11.8736L12.5285 31.4154C11.9027 32.6564 12.7824 34.1354 14.1462 34.1354H33.8538C35.2176 34.1354 36.0972 32.6564 35.4716 31.4154L25.6178 11.8736Z" fill="#83C05B"/>
</g>
</g>
<defs>
<clipPath id="clip0_1_2083">
<rect width="48" height="48" rx="24" fill="white"/>
</clipPath>
<clipPath id="clip1_1_2083">
<rect width="48" height="48" fill="white"/>
</clipPath>
</defs>
</svg>
