<svg width="49" height="48" viewBox="0 0 49 48" fill="none" xmlns="http://www.w3.org/2000/svg">
<g clip-path="url(#clip0_1_2056)">
<g clip-path="url(#clip1_1_2056)">
<path d="M32.9844 0H16.9844C8.14782 0 0.984375 7.16344 0.984375 16V32C0.984375 40.8366 8.14782 48 16.9844 48H32.9844C41.8209 48 48.9844 40.8366 48.9844 32V16C48.9844 7.16344 41.8209 0 32.9844 0Z" fill="#E84142"/>
<path fill-rule="evenodd" clip-rule="evenodd" d="M26.4206 7.12453C25.5892 5.68831 24.2664 5.68831 23.4348 7.12453L8.33559 33.7136C7.50409 35.1686 8.18441 36.3214 9.84739 36.3214H17.4254C18.9561 36.2268 20.3356 35.4142 21.1672 34.1292L30.2946 18.3119C30.956 16.9513 30.956 15.345 30.2946 13.9844L27.5734 9.20327L26.4206 7.12453ZM36.4554 24.6238C35.6238 23.1876 34.282 23.1876 33.4506 24.6238L28.1782 33.7136C27.3656 35.1498 28.0458 36.3214 29.69 36.3214H40.1214C41.7844 36.3214 42.4648 35.1498 41.6332 33.7136L36.4554 24.6238Z" fill="white"/>
</g>
</g>
<defs>
<clipPath id="clip0_1_2056">
<rect x="0.984375" width="48" height="48" rx="24" fill="white"/>
</clipPath>
<clipPath id="clip1_1_2056">
<rect width="48" height="48" fill="white" transform="translate(0.984375)"/>
</clipPath>
</defs>
</svg>
