<svg width="48" height="48" viewBox="0 0 48 48" fill="none" xmlns="http://www.w3.org/2000/svg">
<g clip-path="url(#clip0_1_2023)">
<g clip-path="url(#clip1_1_2023)">
<path d="M32 0H16C7.16344 0 0 7.16344 0 16V32C0 40.8366 7.16344 48 16 48H32C40.8366 48 48 40.8366 48 32V16C48 7.16344 40.8366 0 32 0Z" fill="#F8B900"/>
<path fill-rule="evenodd" clip-rule="evenodd" d="M16.6986 14.767L24.2532 10.2856L31.808 14.767L29.0328 16.3634L24.2256 13.7001L19.5783 16.3634L16.6986 14.767ZM24.2532 15.8257L21.5898 17.5207L24.2532 19.0497L26.8616 17.5207L24.2532 15.8257ZM16.6986 23.4952V20.4636L19.6671 18.6045L24.2532 21.3732L28.9902 18.6045L31.808 20.4636V23.4952L26.9878 26.267V31.793L24.1976 33.3524L21.4882 31.793V26.267L16.6986 23.4952ZM12 17.4377V20.7208L14.6759 22.3666V19.0497L17.3518 17.4377L14.6809 15.8257L12 17.4377ZM36.5714 20.7208V17.4377L33.8904 15.8257L31.2196 17.4377L33.8956 19.0497V22.3666L36.5714 20.7208ZM29.238 27.404L31.8728 25.9784V26.4054V28.9964L29.238 30.4968V27.404ZM36.5714 23.073L33.8956 24.3824V30.058L29.238 32.7614V36.169L36.5714 31.8568V23.073ZM19.3335 27.404L16.6986 25.9784V26.4054V28.9964L19.3335 30.4968V27.404ZM12 23.073L14.6759 24.3824V30.058L19.3335 32.7614V36.169L12 31.8568V23.073ZM24.2256 35.6894L21.5898 34.2842V37.3096L24.2256 38.857L26.8616 37.3096V34.2842L24.2256 35.6894Z" fill="white"/>
</g>
</g>
<defs>
<clipPath id="clip0_1_2023">
<rect width="48" height="48" rx="24" fill="white"/>
</clipPath>
<clipPath id="clip1_1_2023">
<rect width="48" height="48" fill="white"/>
</clipPath>
</defs>
</svg>
