<svg width="48" height="48" viewBox="0 0 48 48" fill="none" xmlns="http://www.w3.org/2000/svg">
<g clip-path="url(#clip0_1_2049)">
<g clip-path="url(#clip1_1_2049)">
<path d="M32 0H16C7.16344 0 0 7.16344 0 16V32C0 40.8366 7.16344 48 16 48H32C40.8366 48 48 40.8366 48 32V16C48 7.16344 40.8366 0 32 0Z" fill="#1969FF"/>
<path d="M22.09 7.81613C22.8922 7.39463 24.1126 7.39463 24.9146 7.81613L33.0988 12.117C33.5818 12.3708 33.8472 12.7491 33.8946 13.1396H33.9024V34.758C33.8918 35.1838 33.624 35.607 33.0988 35.883L24.9146 40.1838C24.1126 40.6054 22.8922 40.6054 22.09 40.1838L13.9059 35.883C13.3828 35.6082 13.1318 35.182 13.1194 34.758C13.1181 34.7162 13.118 34.6814 13.1192 34.6524L13.1191 13.2784C13.1183 13.255 13.1182 13.2316 13.1189 13.2083L13.1194 13.1396L13.123 13.1395C13.1594 12.7448 13.4126 12.3762 13.9059 12.117L22.09 7.81613ZM32.614 25.2004L24.9146 29.2464C24.1126 29.668 22.8922 29.668 22.09 29.2464L14.4074 25.2094V34.7152L22.09 38.731C22.5238 38.9618 22.9742 39.1866 23.4144 39.2152L23.5024 39.218C23.9612 39.2196 24.4066 38.9878 24.8582 38.7684L32.614 34.6806V25.2004ZM11.7882 34.288C11.7882 35.116 11.885 35.6606 12.0771 36.0442C12.2363 36.362 12.4752 36.605 12.9114 36.9006L12.9363 36.9174C13.0321 36.9816 13.1375 37.0488 13.2659 37.1278L13.4173 37.22L13.8821 37.4992L13.2154 38.596L12.6951 38.2832L12.6076 38.2298C12.4572 38.1374 12.3325 38.0582 12.2162 37.98C10.973 37.146 10.5093 36.237 10.5001 34.3454L10.5 34.288H11.7882ZM22.858 19.406C22.7984 19.4263 22.7426 19.4499 22.6916 19.4766L14.5075 23.7776C14.4989 23.782 14.4907 23.7864 14.4829 23.7908L14.476 23.795L14.4888 23.8022L14.5075 23.8122L22.6916 28.1132C22.7426 28.14 22.7984 28.1634 22.858 28.1838V19.406ZM24.1466 19.406V28.1838C24.2062 28.1634 24.262 28.14 24.313 28.1132L32.4972 23.8122C32.5058 23.8078 32.514 23.8034 32.5218 23.7988L32.5286 23.795L32.5158 23.7876L32.4972 23.7776L24.313 19.4766C24.262 19.4499 24.2062 19.4263 24.1466 19.406ZM32.614 14.6731L25.2724 18.5313L32.614 22.3894V14.6731ZM14.4074 14.6821V22.3804L21.732 18.5313L14.4074 14.6821ZM24.313 8.94946C23.8874 8.7258 23.1174 8.7258 22.6916 8.94946L14.5075 13.2503C14.4989 13.2549 14.4907 13.2593 14.4829 13.2637L14.476 13.2677L14.4888 13.275L14.5075 13.2851L22.6916 17.586C23.1174 17.8096 23.8874 17.8096 24.313 17.586L32.4972 13.2851C32.5058 13.2806 32.514 13.2761 32.5218 13.2717L32.5286 13.2677L32.5158 13.2604L32.4972 13.2503L24.313 8.94946ZM33.8236 9.4211L34.344 9.73374L34.4314 9.78716C34.5818 9.87956 34.7064 9.95894 34.8228 10.0369C36.066 10.8709 36.5298 11.7801 36.5388 13.6715L36.539 13.7291H35.2508C35.2508 12.9009 35.154 12.3565 34.962 11.9729C34.8028 11.655 34.5638 11.4121 34.1276 11.1165L34.1026 11.0997C34.007 11.0355 33.9014 10.9682 33.7732 10.8891L33.6218 10.7969L33.1568 10.5178L33.8236 9.4211Z" fill="white"/>
</g>
</g>
<defs>
<clipPath id="clip0_1_2049">
<rect width="48" height="48" rx="24" fill="white"/>
</clipPath>
<clipPath id="clip1_1_2049">
<rect width="48" height="48" fill="white"/>
</clipPath>
</defs>
</svg>
