<svg width="49" height="48" viewBox="0 0 49 48" fill="none" xmlns="http://www.w3.org/2000/svg">
<g clip-path="url(#clip0_1_2105)">
<g clip-path="url(#clip1_1_2105)">
<path d="M24.9844 48C38.2392 48 48.9844 37.2548 48.9844 24C48.9844 10.7452 38.2392 0 24.9844 0C11.7295 0 0.984375 10.7452 0.984375 24C0.984375 37.2548 11.7295 48 24.9844 48Z" fill="#FF0420"/>
<path d="M17.986 30.3744C16.5556 30.3744 15.3844 30.0384 14.4724 29.3664C13.57 28.6848 13.1188 27.7056 13.1188 26.448C13.1188 26.1792 13.1476 25.8624 13.2052 25.4784C13.3588 24.6144 13.5796 23.5776 13.8676 22.3584C14.6836 19.056 16.7956 17.4048 20.194 17.4048C21.1156 17.4048 21.9508 17.5584 22.6804 17.8752C23.41 18.1728 23.986 18.6336 24.4084 19.248C24.8308 19.8528 25.042 20.5728 25.042 21.408C25.042 21.6576 25.0132 21.9744 24.9556 22.3584C24.7732 23.424 24.562 24.4704 24.3028 25.4784C23.8804 27.12 23.1604 28.3584 22.1236 29.1744C21.0964 29.9808 19.714 30.3744 17.986 30.3744ZM18.2452 27.7824C18.9172 27.7824 19.4836 27.5808 19.954 27.1872C20.434 26.7936 20.7796 26.1888 20.9812 25.3632C21.2596 24.2304 21.4708 23.2512 21.6148 22.4064C21.6628 22.1568 21.6916 21.8976 21.6916 21.6288C21.6916 20.5344 21.1252 19.9872 19.9828 19.9872C19.3108 19.9872 18.7348 20.1888 18.2548 20.5824C17.7844 20.976 17.4484 21.5808 17.2468 22.4064C17.026 23.2128 16.8148 24.192 16.594 25.3632C16.546 25.6032 16.5172 25.8528 16.5172 26.1216C16.5076 27.2352 17.0932 27.7824 18.2452 27.7824Z" fill="white"/>
<path d="M25.8772 30.2016C25.7428 30.2016 25.6468 30.1632 25.57 30.0768C25.5124 29.9808 25.4932 29.8752 25.5124 29.7504L27.9988 18.0384C28.018 17.904 28.0852 17.7984 28.2004 17.712C28.306 17.6256 28.4212 17.5872 28.546 17.5872H33.3364C34.6708 17.5872 35.7364 17.8656 36.5428 18.4128C37.3588 18.9696 37.7716 19.7664 37.7716 20.8128C37.7716 21.1104 37.7332 21.4272 37.666 21.7536C37.3684 23.136 36.7636 24.1536 35.842 24.816C34.9396 25.4784 33.7012 25.8048 32.1268 25.8048H29.698L28.8724 29.7504C28.8436 29.8848 28.786 29.9904 28.6708 30.0768C28.5652 30.1632 28.45 30.2016 28.3252 30.2016H25.8772ZM32.2516 23.3184C32.7604 23.3184 33.1924 23.184 33.5668 22.9056C33.9508 22.6272 34.2004 22.2336 34.3252 21.7152C34.3636 21.5136 34.3828 21.3312 34.3828 21.1776C34.3828 20.832 34.2772 20.5632 34.0756 20.3808C33.874 20.1888 33.5188 20.0928 33.0292 20.0928H30.8692L30.1876 23.3184H32.2516Z" fill="white"/>
</g>
</g>
<defs>
<clipPath id="clip0_1_2105">
<rect x="0.984375" width="48" height="48" rx="24" fill="white"/>
</clipPath>
<clipPath id="clip1_1_2105">
<rect width="48" height="48" fill="white" transform="translate(0.984375)"/>
</clipPath>
</defs>
</svg>
