<svg width="48" height="48" viewBox="0 0 48 48" fill="none" xmlns="http://www.w3.org/2000/svg">
<g clip-path="url(#clip0_1_2042)">
<g clip-path="url(#clip1_1_2042)">
<path d="M32 0H16C7.16344 0 0 7.16344 0 16V32C0 40.8366 7.16344 48 16 48H32C40.8366 48 48 40.8366 48 32V16C48 7.16344 40.8366 0 32 0Z" fill="#8247E5"/>
<path d="M31.348 20.256C30.8258 19.9575 30.1544 19.9575 29.5576 20.256L25.38 22.718L22.5452 24.2848L18.4423 26.7468C17.9201 27.0452 17.2487 27.0452 16.6519 26.7468L13.4442 24.807C12.922 24.5086 12.549 23.9116 12.549 23.2402V19.5098C12.549 18.913 12.8474 18.3161 13.4442 17.9431L16.6519 16.0779C17.1741 15.7794 17.8455 15.7794 18.4423 16.0779L21.65 18.0177C22.1722 18.3161 22.5452 18.913 22.5452 19.5844V22.0464L25.38 20.4052V17.8684C25.38 17.2716 25.0816 16.6747 24.4848 16.3017L18.5169 12.7951C17.9947 12.4967 17.3233 12.4967 16.7265 12.7951L10.6094 16.3763C10.0126 16.6747 9.71423 17.2716 9.71423 17.8684V24.8816C9.71423 25.4784 10.0126 26.0754 10.6094 26.4484L16.6519 29.955C17.1741 30.2534 17.8455 30.2534 18.4423 29.955L22.5452 27.5674L25.38 25.926L29.483 23.5386C30.0052 23.2402 30.6766 23.2402 31.2734 23.5386L34.4812 25.4038C35.0034 25.7022 35.3762 26.2992 35.3762 26.9706V30.701C35.3762 31.2978 35.0778 31.8948 34.4812 32.2678L31.348 34.133C30.8258 34.4314 30.1544 34.4314 29.5576 34.133L26.3498 32.2678C25.8276 31.9694 25.4546 31.3724 25.4546 30.701V28.3136L22.6198 29.955V32.417C22.6198 33.0138 22.9182 33.6108 23.515 33.9838L29.5576 37.4904C30.0798 37.7888 30.7512 37.7888 31.348 37.4904L37.3904 33.9838C37.9126 33.6854 38.2856 33.0884 38.2856 32.417V25.3292C38.2856 24.7324 37.9872 24.1356 37.3904 23.7624L31.348 20.256Z" fill="white"/>
</g>
</g>
<defs>
<clipPath id="clip0_1_2042">
<rect width="48" height="48" rx="24" fill="white"/>
</clipPath>
<clipPath id="clip1_1_2042">
<rect width="48" height="48" fill="white"/>
</clipPath>
</defs>
</svg>
