<svg width="48" height="48" viewBox="0 0 48 48" fill="none" xmlns="http://www.w3.org/2000/svg">
<g clip-path="url(#clip0_1_2097)">
<g clip-path="url(#clip1_1_2097)">
<path d="M25.5 0H22.5C10.0736 0 0 10.0736 0 22.5V25.5C0 37.9264 10.0736 48 22.5 48H25.5C37.9264 48 48 37.9264 48 25.5V22.5C48 10.0736 37.9264 0 25.5 0Z" fill="white"/>
<path d="M38.8429 30.9225L33.8905 35.6725C33.7833 35.7757 33.6536 35.8581 33.5093 35.9144C33.3651 35.9707 33.2094 35.9999 33.052 36H9.57541C9.46343 36 9.35393 35.9707 9.26026 35.9158C9.16658 35.861 9.09286 35.7828 9.04808 35.691C9.00331 35.5992 8.98936 35.4978 9.00811 35.399C9.02678 35.3003 9.07733 35.2085 9.15338 35.1351L14.1002 30.3851C14.2074 30.2819 14.3371 30.1995 14.4814 30.1432C14.6256 30.0869 14.7813 30.0577 14.9387 30.0576H38.4153C38.5282 30.0555 38.6394 30.0834 38.7347 30.1377C38.8301 30.192 38.9055 30.2703 38.951 30.3627C38.9969 30.4551 39.0109 30.5577 38.9916 30.6573C38.9723 30.7569 38.9206 30.8492 38.8429 30.9225ZM33.8905 21.3551C33.7829 21.2524 33.6531 21.1704 33.509 21.114C33.3648 21.0578 33.2093 21.0283 33.052 21.0276H9.57541C9.46343 21.0276 9.35393 21.0569 9.26026 21.1118C9.16658 21.1667 9.09286 21.2448 9.04808 21.3366C9.00331 21.4284 8.98936 21.5299 9.00811 21.6286C9.02678 21.7274 9.07733 21.8191 9.15338 21.8926L14.1002 26.6451C14.2078 26.7478 14.3376 26.8298 14.4818 26.8861C14.6259 26.9424 14.7814 26.9718 14.9387 26.9726H38.4153C38.5271 26.9721 38.6361 26.9424 38.7294 26.8874C38.8228 26.8323 38.896 26.7541 38.9405 26.6625C38.9849 26.5707 38.9986 26.4695 38.9795 26.3709C38.9609 26.2724 38.9105 26.1809 38.8345 26.1076L33.8905 21.3551ZM9.57541 17.9426H33.052C33.2094 17.9425 33.3651 17.9133 33.5093 17.8569C33.6536 17.8006 33.7833 17.7183 33.8905 17.6151L38.8429 12.8652C38.9206 12.7917 38.9723 12.6995 38.9916 12.5998C39.0109 12.5002 38.9969 12.3978 38.951 12.3053C38.9055 12.2128 38.8301 12.1345 38.7347 12.0802C38.6394 12.0259 38.5282 11.9981 38.4153 12.0001H14.9387C14.7813 12.0003 14.6256 12.0294 14.4814 12.0858C14.3371 12.1422 14.2074 12.2244 14.1002 12.3276L9.15338 17.0776C9.07733 17.1511 9.02678 17.2428 9.00811 17.3416C8.98936 17.4403 9.00331 17.5418 9.04808 17.6336C9.09286 17.7254 9.16658 17.8035 9.26026 17.8584C9.35393 17.9133 9.46343 17.9426 9.57541 17.9426Z" fill="url(#paint0_linear_1_2097)"/>
</g>
</g>
<defs>
<linearGradient id="paint0_linear_1_2097" x1="11.5318" y1="36.5726" x2="33.1295" y2="9.35208" gradientUnits="userSpaceOnUse">
<stop offset="0.08" stop-color="#9945FF"/>
<stop offset="0.3" stop-color="#8752F3"/>
<stop offset="0.5" stop-color="#5497D5"/>
<stop offset="0.6" stop-color="#43B4CA"/>
<stop offset="0.72" stop-color="#28E0B9"/>
<stop offset="0.97" stop-color="#19FB9B"/>
</linearGradient>
<clipPath id="clip0_1_2097">
<rect width="48" height="48" rx="24" fill="white"/>
</clipPath>
<clipPath id="clip1_1_2097">
<rect width="48" height="48" fill="white"/>
</clipPath>
</defs>
</svg>
